<?xml version="1.0" encoding="utf-8"?>
<!-- Generator: Adobe Illustrator 16.0.0, SVG Export Plug-In . SVG Version: 6.00 Build 0)  -->
<!DOCTYPE svg PUBLIC "-//W3C//DTD SVG 1.1//EN" "http://www.w3.org/Graphics/SVG/1.1/DTD/svg11.dtd">
<svg version="1.1" xmlns="http://www.w3.org/2000/svg" xmlns:xlink="http://www.w3.org/1999/xlink" x="0px" y="0px"
	 width="1229.395px" height="452.977px" viewBox="0 0 1229.395 452.977" enable-background="new 0 0 1229.395 452.977"
	 xml:space="preserve">
<g id="Image_xA0_5_1_">
</g>
<g id="Logo_1_">
	<g id="_x31__2_">
		<g>
			<path fill-rule="evenodd" clip-rule="evenodd" fill="#FFFFFF" d="M91.377,162.202c-5.096,0.295-7.008,5.676-7.008,5.676
				c-0.546,1.348-2.915,12.454-0.197,16.873c2.806,4.562,12.137,4.984,15.852,2.879c3.714-2.106,8.414-7.88,8.406-15.592
				C108.421,164.325,96.473,161.907,91.377,162.202z"/>
		</g>
		<g>
			<path fill="none" stroke="#59585B" stroke-miterlimit="10" d="M91.377,162.202c-5.096,0.295-7.008,5.676-7.008,5.676
				c-0.546,1.348-2.915,12.454-0.197,16.873c2.806,4.562,12.137,4.984,15.852,2.879c3.714-2.106,8.414-7.88,8.406-15.592
				C108.421,164.325,96.473,161.907,91.377,162.202z"/>
		</g>
	</g>
	<g id="_x33_">
		<g>
			<path fill-rule="evenodd" clip-rule="evenodd" fill="#FFFFFF" d="M239.369,232.586c-24.377-9.994-41.247-34.28-40.496-62.188
				c0.446-16.554,7.016-31.5,17.479-42.731c0.472-0.417,0.083-2.263-1.307-1.854c-20.596,7.236-31.006,14.273-34.956,17.371
				c-0.585,0.358-1.549,1.97-0.827,3.254c5.342,8.65,26.492,50.492-4.805,88.605c-0.958,0.977-1.467,3.616-0.342,4.93
				c6.043,7.99,13.131,15.155,21.065,21.29c1.094,0.935,2.802,0.093,3.125-0.367c5.924-8.226,19.509-19.346,41.025-26.589
				C239.844,234.242,240.685,233.147,239.369,232.586z"/>
		</g>
		<g>
			<path fill="none" stroke="#59585B" stroke-miterlimit="10" d="M239.369,232.586c-24.377-9.994-41.247-34.28-40.496-62.188
				c0.446-16.554,7.016-31.5,17.479-42.731c0.472-0.417,0.083-2.263-1.307-1.854c-20.596,7.236-31.006,14.273-34.956,17.371
				c-0.585,0.358-1.549,1.97-0.827,3.254c5.342,8.65,26.492,50.492-4.805,88.605c-0.958,0.977-1.467,3.616-0.342,4.93
				c6.043,7.99,13.131,15.155,21.065,21.29c1.094,0.935,2.802,0.093,3.125-0.367c5.924-8.226,19.509-19.346,41.025-26.589
				C239.844,234.242,240.685,233.147,239.369,232.586z"/>
		</g>
	</g>
	<g id="_x34_">
		<g>
			<path fill-rule="evenodd" clip-rule="evenodd" fill="#FFFFFF" d="M175.246,151.28c-1.328-2.296-3.267-1.582-4.708-0.257
				c-33.031,29.836-16.35,71.422-10.105,84.066c1.188,2.804,3.342,2.759,4.74,1.416C173.919,228.212,199.364,198.493,175.246,151.28
				z"/>
		</g>
		<g>
			<path fill="none" stroke="#59585B" stroke-miterlimit="10" d="M175.246,151.28c-1.328-2.296-3.267-1.582-4.708-0.257
				c-33.031,29.836-16.35,71.422-10.105,84.066c1.188,2.804,3.342,2.759,4.74,1.416C173.919,228.212,199.364,198.493,175.246,151.28
				z"/>
		</g>
	</g>
	<path fill-rule="evenodd" clip-rule="evenodd" fill="#FFFFFF" stroke="#59585B" stroke-miterlimit="10" d="M398.796,186.509
		c-8.046-0.9-18.188,26.109-3.119,39.845c6.356,5.706,15.412,8.821,28.662,3.885c12.95-4.825,18.992-14.981,19.665-26.869
		c-0.325-18.563-22.269-13.528-17.267-24.709c5.541-8.998,13.629-1.072,19.426-3.602c13.686-5.974,11.777-36.475-1.919-40.3
		c-6.361-1.776-23.346,12.681-24.701,16.073s7.5,9.984,5.036,21.831C421.303,183.967,408.829,187.594,398.796,186.509z"/>
	<path fill-rule="evenodd" clip-rule="evenodd" fill="#FFFFFF" stroke="#59585B" stroke-miterlimit="10" d="M393.607,146.889
		c-16.368-7.618-16.817-43.484,0.756-47.156c6.75-0.409,17.051,1.059,22.303,5.758c5.727,5.125,11.056,11.11,12.23,19.672
		c1.175,8.562-7.316,18.646-14.795,21.123C409.756,148.183,397.226,148.573,393.607,146.889z"/>
	<path fill-rule="evenodd" clip-rule="evenodd" fill="#FFFFFF" stroke="#59585B" stroke-miterlimit="10" d="M88.852,155.793
		c-8.058,0.9-18.215-26.107-3.124-39.842c6.366-5.706,15.435-8.82,28.706-3.884c12.97,4.824,19.021,14.98,19.694,26.867
		c-0.326,18.562-22.303,13.527-17.292,24.708c5.549,8.997,15.329-2.972,20.205,6.336s5.277,35.458-2.672,37.563
		c-6.393,1.692-23.381-12.68-24.738-16.072c-1.357-3.392,7.511-9.983,5.044-21.83C111.393,158.335,98.899,154.709,88.852,155.793z"
		/>
	<path fill-rule="evenodd" clip-rule="evenodd" fill="#FFFFFF" stroke="#59585B" stroke-miterlimit="10" d="M83.654,195.411
		c-16.392,7.617-16.842,43.48,0.757,47.152c6.761,0.409,17.077-1.059,22.336-5.757c5.736-5.124,11.072-11.109,12.249-19.67
		c1.176-8.561-7.328-18.646-14.817-21.122C99.828,194.117,87.279,193.726,83.654,195.411z"/>
	<path fill-rule="evenodd" clip-rule="evenodd" fill="#FFFFFF" stroke="#59585B" stroke-miterlimit="10" d="M367.211,218.365
		c21.294-47.786,2.65-87.184,2.5-87.485c-1.459-3.422-5.174-1.261-5.174-1.261s-50.783,20.249-35.33,78.502
		c0.182,0.743,0.997,1.219,1.397,1.001c16.059-6.797,25.209,0.081,34.208,9.845C365.078,219.256,366.964,218.914,367.211,218.365z"
		/>
	<g id="_x32__1_">
		<g>
			<path fill-rule="evenodd" clip-rule="evenodd" fill="#FFFFFF" d="M265.933,237.265c-0.248-0.222-1.581-0.418-1.938-0.375
				c-42.36,4.723-61.043,27.668-57.582,32.229c0.59,2.605,39.118,22.905,81.454,11.978c0.802-0.253,1.371-1.688,1.298-2.686
				C288.538,269.809,274.153,241.759,265.933,237.265z"/>
		</g>
		<g>
			<path fill="none" stroke="#59585B" stroke-miterlimit="10" d="M265.933,237.265c-0.248-0.222-1.581-0.418-1.938-0.375
				c-42.36,4.723-61.043,27.668-57.582,32.229c0.59,2.605,39.118,22.905,81.454,11.978c0.802-0.253,1.371-1.688,1.298-2.686
				C288.538,269.809,274.153,241.759,265.933,237.265z"/>
		</g>
	</g>
	<path fill-rule="evenodd" clip-rule="evenodd" fill="#FFFFFF" stroke="#59585B" stroke-miterlimit="10" d="M438.146,63.853
		c-8.753,0-34.957,0-43.269,0c-1.093,0-2.479,1.174-2.56,2.48c0,5.217,0,18.478,0,23.763c0,1.015,1.168,2.359,2.255,2.199
		c3.636-0.483,10.988-0.573,16.94,1.561c8.252,2.96,15.588,10.352,18.235,14.402c3.886,6.994,7.816,6.149,9.26,6.111
		c1.888,0.073,2.017-2.19,2.017-2.19s0-36.697,0-45.526C441.026,65.32,439.827,63.933,438.146,63.853z"/>
	<path fill-rule="evenodd" clip-rule="evenodd" fill="#FFFFFF" stroke="#59585B" stroke-miterlimit="10" d="M392.544,237.799
		c-0.033,7.896,0,29.668,0.011,37.748c0.006,1.934,1.471,2.835,2.699,2.905c8.638,0.013,35.531-0.005,43.515-0.011
		c1.706,0.094,2.226-1.498,2.255-2.284c-0.005-8.118-0.021-34.411-0.005-43.927c0.072-2.378-1.523-1.795-1.852-1.553
		c-5.136,3.982-19.597,17.116-44.253,5.481C394.557,235.93,392.629,236.324,392.544,237.799z"/>
	<path fill-rule="evenodd" clip-rule="evenodd" fill="#FFFFFF" stroke="#59585B" stroke-miterlimit="10" d="M82.59,104.506
		c-0.033-7.895,0-29.666,0.011-37.745c0.005-1.934,1.474-2.834,2.703-2.905c8.651-0.013,35.585,0.004,43.581,0.01
		c1.709-0.093,2.229,1.499,2.259,2.284c-0.005,8.118-0.021,34.409-0.005,43.924c0.072,2.377-1.525,1.795-1.855,1.553
		c-5.144-3.983-19.626-17.116-44.321-5.482C84.605,106.375,82.675,105.982,82.59,104.506z"/>
	<path fill-rule="evenodd" clip-rule="evenodd" fill="#FFFFFF" stroke="#59585B" stroke-miterlimit="10" d="M128.163,278.458
		c-8.756,0-34.968,0-43.282,0c-1.093,0-2.48-1.175-2.56-2.483c0-5.224,0-18.502,0-23.795c0-1.016,1.168-2.362,2.256-2.202
		c3.637,0.484,10.991,0.574,16.945-1.563c8.255-2.963,15.593-10.365,18.241-14.421c3.888-7.004,7.819-6.157,9.263-6.119
		c1.889-0.073,2.018,2.193,2.018,2.193s0,36.747,0,45.587C131.043,276.989,129.844,278.377,128.163,278.458z"/>
	<path fill-rule="evenodd" clip-rule="evenodd" fill="#FFFFFF" stroke="#59585B" stroke-miterlimit="10" d="M359.567,226.481
		c0.113,14.522-40.421,47.052-47.943,44.98c-14.322-0.92-21.657-8.328-24.305-15.883c-2.648-7.554-3.351-25.089,12.346-30.279
		c11.657-3.854,22.549,5.337,27.384,10.324c0.718,0.721,1.668,0.186,1.631-0.93c-1.07-5.247-1.929-14.455,3.803-18.851
		C340.762,209.494,356.717,213.547,359.567,226.481z"/>
	<path fill-rule="evenodd" clip-rule="evenodd" fill="#FFFFFF" stroke="#59585B" stroke-miterlimit="10" d="M394.32,174.423
		c0,0,1.91,5.382,6.998,5.677s17.019-2.123,17.026-9.836c0.008-7.713-4.684-13.488-8.393-15.593
		c-3.709-2.106-13.026-1.684-15.828,2.878C391.41,161.968,393.775,173.076,394.32,174.423z"/>
	<path fill-rule="evenodd" clip-rule="evenodd" fill="#FFFFFF" stroke="#59585B" stroke-miterlimit="10" d="M210.142,63.382
		c11.733-4.629,56.623-19.084,83.905,17.884c2.057,2.426,0.458,4.108-1.194,4.731c-49.766,19.38-76.82-9.732-83.772-18.829
		C207.674,65.208,209.206,63.703,210.142,63.382z"/>
	<path fill-rule="evenodd" clip-rule="evenodd" fill="#FFFFFF" stroke="#59585B" stroke-miterlimit="10" d="M326.892,150.048
		c-7.446-46.598-23.306-72.532-41.427-86.132c-0.622-0.672-0.514-2.328,1.266-2.272c33.114,6.828,61.24,28.517,76.834,57.15
		c0.504,0.765-0.036,2.205-0.879,2.54c-9.583,4.598-24.461,13.232-33.854,29.818C327.921,152.035,327.088,151.339,326.892,150.048z"
		/>
	<path fill-rule="evenodd" clip-rule="evenodd" fill="#FFFFFF" stroke="#59585B" stroke-miterlimit="10" d="M311.986,127.787
		c-11.518-12.436-27.837-20.403-46.116-20.896c-6.18-0.167-12.183,0.532-17.891,1.986c-0.042-0.056-0.084-0.114-0.126-0.168
		c-53.828,11.819-81.275,31.758-93.923,52.898c-0.73,1.072-2.142,0.225-2.054-0.509c3.53-36.616,24.485-67.923,54.297-85.796
		c0.89-0.638,2.053-0.174,2.353,0.201c35.539,37.172,80.952,18.934,89.478,14.651c1.002-0.505,2.112,0.109,2.407,0.608
		c2.378,3.56,8.556,14.229,13.983,35.727C314.596,128.175,312.629,128.494,311.986,127.787z"/>
</g>
<g id="_x3C_Text_Layer_x3E__xA0_18_1_">
	<g>
		<path fill="#58595B" d="M495.299,122.235v-4.923l19.562-21.75c2.917-3.303,4.922-5.995,6.017-8.076
			c1.137-2.145,1.705-4.312,1.705-6.499c0-2.96-0.912-5.426-2.735-7.4c-1.823-1.952-4.258-2.928-7.303-2.928
			c-3.604,0-6.414,1.019-8.43,3.057c-2.038,2.038-3.078,4.88-3.121,8.526h-6.789c0.064-4.912,1.705-9.02,4.923-12.323
			c3.496-3.196,7.968-4.794,13.417-4.794c5.19,0,9.319,1.383,12.387,4.15c3.003,2.703,4.504,6.317,4.504,10.843
			c0,5.555-3.539,12.173-10.617,19.851l-15.476,16.763h28.699v5.502H495.299z"/>
		<path fill="#58595B" d="M563.636,97.396c-3.282,3.904-7.325,5.855-12.129,5.855c-3.089,0-5.877-0.825-8.365-2.477
			c-2.381-1.587-4.247-3.786-5.598-6.596c-1.331-2.96-1.995-6.167-1.995-9.62c0-3.753,0.719-7.143,2.156-10.167
			c1.437-2.981,3.464-5.276,6.081-6.885c2.638-1.587,5.684-2.381,9.137-2.381c5.534,0,9.898,2.081,13.095,6.242
			c3.217,4.162,4.826,9.834,4.826,17.02v2.091c0,10.982-2.167,19.015-6.499,24.098c-4.333,5.019-10.864,7.582-19.594,7.689h-1.222
			v-5.694h1.319c6.091-0.085,10.714-1.652,13.867-4.698c3.217-3.131,4.976-7.925,5.276-14.381L563.636,97.396z M559.453,95.434
			c2.102-1.501,3.625-3.356,4.569-5.566v-2.96c0-4.805-1.041-8.687-3.121-11.647c-2.102-3.003-4.751-4.504-7.947-4.504
			c-3.239,0-5.834,1.244-7.786,3.732c-1.952,2.445-2.928,5.673-2.928,9.684c0,3.904,0.933,7.143,2.799,9.717
			c1.931,2.531,4.483,3.796,7.658,3.796C555.163,97.686,557.415,96.936,559.453,95.434z"/>
		<path fill="#58595B" d="M581.307,76.778h4.596v3.02h-4.596V95.16c0,1.05,0.212,1.813,0.638,2.288
			c0.45,0.513,1.175,0.769,2.176,0.769c0.525,0,1.157-0.075,1.895-0.225v3.151c-1.125,0.288-2.164,0.432-3.114,0.432
			c-1.826,0-3.214-0.557-4.164-1.669c-0.938-1.101-1.407-2.683-1.407-4.746V79.798h-4.464v-3.02h4.464v-5.946h3.977V76.778z"/>
		<path fill="#58595B" d="M592.843,79.647c2.051-2.213,4.514-3.32,7.39-3.32c5.114,0,7.697,2.895,7.747,8.685v16.113h-3.977v-16.15
			c-0.025-3.539-1.707-5.308-5.046-5.308c-1.338,0-2.551,0.375-3.639,1.125c-1.025,0.713-1.851,1.694-2.476,2.945v17.388h-3.958
			V66.48h3.958V79.647z"/>
		<path fill="#58595B" d="M498.159,172.633h-2.87v-33.944h2.87V172.633z"/>
		<path fill="#58595B" d="M506.554,147.396l0.097,4.315c0.95-1.554,2.131-2.738,3.544-3.554c1.413-0.815,2.973-1.223,4.681-1.223
			c2.709,0,4.723,0.761,6.04,2.283c1.316,1.522,1.987,3.812,2.013,6.868v16.548h-2.774v-16.587
			c-0.026-2.247-0.507-3.923-1.445-5.028c-0.938-1.104-2.44-1.657-4.508-1.657c-1.721,0-3.246,0.54-4.575,1.618
			c-1.329,1.079-2.315,2.537-2.957,4.373v17.28h-2.774v-25.236H506.554z"/>
		<path fill="#58595B" d="M531.632,140.943v6.454h5.221v2.292h-5.221v16.818c0,1.4,0.253,2.44,0.761,3.121s1.352,1.021,2.533,1.021
			c0.462,0,1.214-0.077,2.254-0.231l0.116,2.292c-0.732,0.257-1.728,0.385-2.986,0.385c-1.914,0-3.304-0.556-4.171-1.667
			s-1.3-2.745-1.3-4.903v-16.837h-4.643v-2.292h4.643v-6.454H531.632z"/>
		<path fill="#58595B" d="M549.582,173.095c-2.145,0-4.084-0.527-5.818-1.58c-1.734-1.053-3.083-2.527-4.046-4.421
			c-0.963-1.894-1.445-4.01-1.445-6.348v-1.001c0-2.428,0.469-4.614,1.407-6.56c0.937-1.946,2.247-3.474,3.93-4.585
			c1.682-1.111,3.5-1.667,5.452-1.667c3.069,0,5.503,1.047,7.301,3.14c1.798,2.093,2.697,4.951,2.697,8.573v1.56h-18.012v0.54
			c0,2.851,0.818,5.23,2.456,7.138c1.638,1.907,3.702,2.86,6.193,2.86c1.49,0,2.806-0.273,3.949-0.818
			c1.143-0.546,2.183-1.416,3.121-2.61l1.753,1.329C556.465,171.612,553.486,173.095,549.582,173.095z M549.062,149.323
			c-2.093,0-3.859,0.768-5.297,2.302c-1.438,1.535-2.312,3.6-2.62,6.193h15.123v-0.289c-0.077-2.427-0.768-4.402-2.071-5.924
			C552.892,150.084,551.181,149.323,549.062,149.323z"/>
		<path fill="#58595B" d="M573.312,149.785c-0.591-0.116-1.22-0.173-1.888-0.173c-1.747,0-3.221,0.488-4.421,1.464
			c-1.201,0.976-2.058,2.389-2.572,4.238v17.319h-2.774v-25.236h2.716l0.058,4.007c1.477-2.979,3.846-4.469,7.108-4.469
			c0.783,0,1.4,0.103,1.85,0.308L573.312,149.785z"/>
		<path fill="#58595B" d="M577.545,147.396l0.097,4.315c0.95-1.554,2.131-2.738,3.544-3.554c1.413-0.815,2.973-1.223,4.681-1.223
			c2.709,0,4.723,0.761,6.04,2.283c1.316,1.522,1.987,3.812,2.013,6.868v16.548h-2.774v-16.587
			c-0.026-2.247-0.507-3.923-1.445-5.028c-0.938-1.104-2.44-1.657-4.508-1.657c-1.721,0-3.246,0.54-4.575,1.618
			c-1.329,1.079-2.315,2.537-2.957,4.373v17.28h-2.774v-25.236H577.545z"/>
		<path fill="#58595B" d="M614.22,172.633c-0.282-0.796-0.462-1.972-0.539-3.525c-0.977,1.284-2.225,2.27-3.747,2.957
			c-1.521,0.687-3.124,1.031-4.807,1.031c-2.427,0-4.392-0.674-5.895-2.023s-2.254-3.056-2.254-5.124
			c0-2.466,1.021-4.412,3.063-5.837c2.042-1.425,4.893-2.138,8.553-2.138h5.066v-2.871c0-1.811-0.559-3.233-1.676-4.267
			c-1.117-1.034-2.735-1.551-4.854-1.551c-1.952,0-3.564,0.498-4.835,1.493c-1.271,0.996-1.907,2.193-1.907,3.593l-2.793-0.019
			c0-2.004,0.931-3.741,2.793-5.211c1.862-1.47,4.154-2.206,6.877-2.206c2.813,0,5.031,0.703,6.656,2.109
			c1.624,1.406,2.462,3.368,2.514,5.885v11.944c0,2.44,0.257,4.27,0.771,5.491v0.27H614.22z M605.436,170.629
			c1.875,0,3.548-0.45,5.019-1.349c1.47-0.899,2.539-2.106,3.207-3.622v-5.548h-4.989c-2.787,0.026-4.967,0.533-6.54,1.522
			c-1.574,0.989-2.36,2.35-2.36,4.084c0,1.413,0.526,2.585,1.58,3.516C602.404,170.164,603.766,170.629,605.436,170.629z"/>
		<path fill="#58595B" d="M625.37,140.943v6.454h5.221v2.292h-5.221v16.818c0,1.4,0.253,2.44,0.761,3.121
			c0.507,0.681,1.352,1.021,2.533,1.021c0.463,0,1.214-0.077,2.254-0.231l0.115,2.292c-0.731,0.257-1.727,0.385-2.985,0.385
			c-1.914,0-3.304-0.556-4.171-1.667s-1.301-2.745-1.301-4.903v-16.837h-4.643v-2.292h4.643v-6.454H625.37z"/>
		<path fill="#58595B" d="M633.379,140.095c0-0.526,0.173-0.973,0.52-1.339c0.348-0.366,0.815-0.549,1.406-0.549
			s1.06,0.183,1.407,0.549c0.347,0.366,0.52,0.816,0.52,1.349c0,0.533-0.173,0.976-0.52,1.329c-0.348,0.354-0.816,0.53-1.407,0.53
			s-1.059-0.176-1.406-0.53C633.552,141.081,633.379,140.635,633.379,140.095z M636.673,172.633h-2.793v-25.236h2.793V172.633z"/>
		<path fill="#58595B" d="M639.886,159.648c0-2.427,0.469-4.614,1.406-6.56c0.938-1.945,2.267-3.458,3.988-4.537
			c1.721-1.079,3.666-1.618,5.837-1.618c3.364,0,6.088,1.178,8.168,3.535s3.121,5.474,3.121,9.353v0.597
			c0,2.44-0.47,4.637-1.406,6.588c-0.938,1.953-2.261,3.455-3.969,4.508c-1.708,1.053-3.66,1.58-5.856,1.58
			c-3.339,0-6.056-1.179-8.148-3.535c-2.094-2.356-3.141-5.474-3.141-9.353V159.648z M642.68,160.419
			c0,3.019,0.783,5.494,2.35,7.427c1.567,1.933,3.615,2.899,6.146,2.899c2.517,0,4.556-0.966,6.116-2.899s2.341-4.485,2.341-7.658
			v-0.54c0-1.926-0.356-3.692-1.069-5.297s-1.714-2.845-3.005-3.718c-1.291-0.873-2.771-1.31-4.44-1.31
			c-2.479,0-4.505,0.973-6.078,2.918c-1.573,1.946-2.359,4.499-2.359,7.658V160.419z"/>
		<path fill="#58595B" d="M667.989,147.396l0.096,4.315c0.95-1.554,2.132-2.738,3.545-3.554c1.412-0.815,2.973-1.223,4.682-1.223
			c2.709,0,4.723,0.761,6.039,2.283s1.987,3.812,2.013,6.868v16.548h-2.773v-16.587c-0.026-2.247-0.508-3.923-1.445-5.028
			c-0.938-1.104-2.44-1.657-4.508-1.657c-1.721,0-3.246,0.54-4.575,1.618c-1.329,1.079-2.315,2.537-2.957,4.373v17.28h-2.774
			v-25.236H667.989z"/>
		<path fill="#58595B" d="M704.663,172.633c-0.282-0.796-0.462-1.972-0.539-3.525c-0.977,1.284-2.225,2.27-3.747,2.957
			c-1.521,0.687-3.124,1.031-4.807,1.031c-2.427,0-4.392-0.674-5.895-2.023s-2.254-3.056-2.254-5.124
			c0-2.466,1.021-4.412,3.063-5.837c2.043-1.425,4.894-2.138,8.554-2.138h5.066v-2.871c0-1.811-0.559-3.233-1.676-4.267
			c-1.117-1.034-2.735-1.551-4.854-1.551c-1.952,0-3.564,0.498-4.836,1.493c-1.271,0.996-1.906,2.193-1.906,3.593l-2.794-0.019
			c0-2.004,0.932-3.741,2.794-5.211c1.861-1.47,4.154-2.206,6.877-2.206c2.813,0,5.031,0.703,6.656,2.109
			c1.624,1.406,2.462,3.368,2.514,5.885v11.944c0,2.44,0.257,4.27,0.771,5.491v0.27H704.663z M695.879,170.629
			c1.875,0,3.548-0.45,5.019-1.349c1.47-0.899,2.539-2.106,3.207-3.622v-5.548h-4.989c-2.787,0.026-4.967,0.533-6.54,1.522
			c-1.573,0.989-2.36,2.35-2.36,4.084c0,1.413,0.526,2.585,1.58,3.516C692.848,170.164,694.209,170.629,695.879,170.629z"/>
		<path fill="#58595B" d="M714.6,172.633h-2.793V136.82h2.793V172.633z"/>
		<path fill="#58595B" d="M754.776,157.491c0,3.133-0.539,5.882-1.618,8.245c-1.079,2.363-2.62,4.18-4.623,5.452
			c-2.004,1.271-4.322,1.907-6.955,1.907c-3.968,0-7.173-1.419-9.612-4.257c-2.44-2.838-3.66-6.666-3.66-11.482v-3.487
			c0-3.095,0.549-5.837,1.646-8.226c1.099-2.389,2.649-4.226,4.652-5.51c2.004-1.284,4.313-1.926,6.926-1.926
			s4.919,0.629,6.916,1.888c1.997,1.259,3.541,3.041,4.633,5.346c1.092,2.306,1.657,4.974,1.695,8.004V157.491z M751.906,153.812
			c0-4.084-0.925-7.285-2.774-9.604c-1.849-2.318-4.379-3.477-7.59-3.477c-3.159,0-5.677,1.163-7.552,3.487
			c-1.875,2.325-2.813,5.567-2.813,9.729v3.545c0,4.033,0.935,7.227,2.803,9.584c1.869,2.356,4.402,3.535,7.6,3.535
			c3.249,0,5.783-1.162,7.601-3.487c1.816-2.324,2.726-5.561,2.726-9.709V153.812z"/>
		<path fill="#58595B" d="M761.649,172.633h-2.793V136.82h2.793V172.633z"/>
		<path fill="#58595B" d="M774.398,168.626l7.378-21.229h3.006l-10.788,29.532l-0.559,1.31c-1.375,3.056-3.507,4.585-6.396,4.585
			c-0.681,0-1.399-0.109-2.157-0.328l-0.02-2.312l1.445,0.154c1.374,0,2.481-0.34,3.323-1.021c0.841-0.681,1.557-1.843,2.147-3.487
			l1.252-3.41l-9.517-25.024h3.044L774.398,168.626z"/>
		<path fill="#58595B" d="M788.804,147.396l0.097,4.103c0.925-1.515,2.087-2.655,3.486-3.419c1.4-0.764,2.954-1.146,4.662-1.146
			c3.981,0,6.512,1.631,7.591,4.893c0.898-1.566,2.103-2.774,3.611-3.622c1.51-0.848,3.169-1.271,4.98-1.271
			c5.419,0,8.181,2.954,8.283,8.862v16.837h-2.793v-16.625c-0.013-2.26-0.498-3.933-1.455-5.019
			c-0.956-1.085-2.514-1.628-4.671-1.628c-2.017,0.026-3.715,0.674-5.096,1.946s-2.148,2.813-2.302,4.624v16.702h-2.794v-16.837
			c-0.025-2.158-0.539-3.77-1.541-4.835s-2.543-1.599-4.623-1.599c-1.76,0-3.269,0.501-4.527,1.503
			c-1.259,1.001-2.189,2.492-2.793,4.469v17.299h-2.794v-25.236H788.804z"/>
		<path fill="#58595B" d="M846.035,160.265c0,3.943-0.871,7.067-2.61,9.372c-1.741,2.305-4.075,3.458-7.003,3.458
			c-3.442,0-6.081-1.214-7.918-3.641v12.888h-2.773v-34.945h2.581l0.135,3.564c1.823-2.684,4.463-4.026,7.918-4.026
			c3.005,0,5.368,1.143,7.089,3.429s2.582,5.458,2.582,9.517V160.265z M843.241,159.783c0-3.223-0.661-5.766-1.984-7.628
			c-1.322-1.862-3.166-2.793-5.528-2.793c-1.708,0-3.176,0.411-4.402,1.233c-1.227,0.822-2.167,2.023-2.822,3.603v12.098
			c0.668,1.438,1.621,2.54,2.861,3.304c1.239,0.764,2.706,1.146,4.401,1.146c2.351,0,4.184-0.937,5.5-2.813
			C842.583,166.057,843.241,163.341,843.241,159.783z"/>
		<path fill="#58595B" d="M849.209,140.095c0-0.526,0.173-0.973,0.52-1.339c0.348-0.366,0.815-0.549,1.406-0.549
			s1.06,0.183,1.407,0.549c0.347,0.366,0.52,0.816,0.52,1.349c0,0.533-0.173,0.976-0.52,1.329c-0.348,0.354-0.816,0.53-1.407,0.53
			s-1.059-0.176-1.406-0.53C849.382,141.081,849.209,140.635,849.209,140.095z M852.503,172.633h-2.793v-25.236h2.793V172.633z"/>
		<path fill="#58595B" d="M873.188,172.633c-0.282-0.796-0.462-1.972-0.539-3.525c-0.977,1.284-2.225,2.27-3.747,2.957
			c-1.521,0.687-3.124,1.031-4.807,1.031c-2.427,0-4.392-0.674-5.895-2.023s-2.254-3.056-2.254-5.124
			c0-2.466,1.021-4.412,3.063-5.837c2.043-1.425,4.894-2.138,8.554-2.138h5.066v-2.871c0-1.811-0.559-3.233-1.676-4.267
			c-1.117-1.034-2.735-1.551-4.854-1.551c-1.952,0-3.564,0.498-4.836,1.493c-1.271,0.996-1.906,2.193-1.906,3.593l-2.794-0.019
			c0-2.004,0.932-3.741,2.794-5.211c1.861-1.47,4.154-2.206,6.877-2.206c2.813,0,5.031,0.703,6.656,2.109
			c1.624,1.406,2.462,3.368,2.514,5.885v11.944c0,2.44,0.257,4.27,0.771,5.491v0.27H873.188z M864.404,170.629
			c1.875,0,3.548-0.45,5.019-1.349c1.47-0.899,2.539-2.106,3.207-3.622v-5.548h-4.989c-2.787,0.026-4.967,0.533-6.54,1.522
			c-1.573,0.989-2.36,2.35-2.36,4.084c0,1.413,0.526,2.585,1.58,3.516C861.373,170.164,862.734,170.629,864.404,170.629z"/>
		<path fill="#58595B" d="M878.886,159.783c0-3.917,0.873-7.038,2.62-9.362c1.746-2.324,4.123-3.487,7.128-3.487
			c3.403,0,5.997,1.342,7.782,4.026v-14.14h2.774v35.813h-2.601l-0.135-3.352c-1.785,2.543-4.411,3.814-7.879,3.814
			c-2.903,0-5.243-1.169-7.022-3.506c-1.778-2.337-2.668-5.497-2.668-9.478V159.783z M881.698,160.265
			c0,3.224,0.646,5.763,1.937,7.619s3.111,2.784,5.461,2.784c3.43,0,5.869-1.516,7.32-4.546v-11.848
			c-1.451-3.275-3.878-4.913-7.281-4.913c-2.338,0-4.161,0.922-5.472,2.765C882.354,153.969,881.698,156.682,881.698,160.265z"/>
		<path fill="#58595B" d="M913.227,140.095c0-0.526,0.173-0.973,0.52-1.339c0.348-0.366,0.815-0.549,1.406-0.549
			s1.06,0.183,1.407,0.549c0.347,0.366,0.52,0.816,0.52,1.349c0,0.533-0.173,0.976-0.52,1.329c-0.348,0.354-0.816,0.53-1.407,0.53
			s-1.059-0.176-1.406-0.53C913.399,141.081,913.227,140.635,913.227,140.095z M916.521,172.633h-2.793v-25.236h2.793V172.633z"/>
		<path fill="#58595B" d="M923.934,147.396l0.096,4.315c0.95-1.554,2.132-2.738,3.545-3.554c1.412-0.815,2.973-1.223,4.682-1.223
			c2.709,0,4.723,0.761,6.039,2.283s1.987,3.812,2.013,6.868v16.548h-2.773v-16.587c-0.026-2.247-0.508-3.923-1.445-5.028
			c-0.938-1.104-2.44-1.657-4.508-1.657c-1.721,0-3.246,0.54-4.575,1.618c-1.329,1.079-2.315,2.537-2.957,4.373v17.28h-2.774
			v-25.236H923.934z"/>
		<path fill="#58595B" d="M958.505,172.633h-2.871v-33.944h2.871V172.633z"/>
		<path fill="#58595B" d="M966.899,147.396l0.096,4.315c0.95-1.554,2.132-2.738,3.545-3.554c1.412-0.815,2.973-1.223,4.682-1.223
			c2.709,0,4.723,0.761,6.039,2.283s1.987,3.812,2.013,6.868v16.548H980.5v-16.587c-0.026-2.247-0.508-3.923-1.445-5.028
			c-0.938-1.104-2.44-1.657-4.508-1.657c-1.721,0-3.246,0.54-4.575,1.618c-1.329,1.079-2.315,2.537-2.957,4.373v17.28h-2.774
			v-25.236H966.899z"/>
		<path fill="#58595B" d="M989.646,172.633v-22.944h-4.181v-2.292h4.181v-3.044c0-2.581,0.658-4.565,1.975-5.953
			c1.316-1.387,3.143-2.081,5.48-2.081c1.066,0,2.055,0.135,2.967,0.405l-0.212,2.331c-0.771-0.193-1.618-0.289-2.543-0.289
			c-1.541,0-2.738,0.479-3.593,1.435c-0.854,0.957-1.281,2.315-1.281,4.074v3.121h6.03v2.292h-6.03v22.944H989.646z"/>
		<path fill="#58595B" d="M999.081,159.648c0-2.427,0.469-4.614,1.406-6.56c0.938-1.945,2.267-3.458,3.988-4.537
			c1.721-1.079,3.666-1.618,5.837-1.618c3.364,0,6.088,1.178,8.168,3.535s3.121,5.474,3.121,9.353v0.597
			c0,2.44-0.47,4.637-1.406,6.588c-0.938,1.953-2.261,3.455-3.969,4.508c-1.708,1.053-3.66,1.58-5.856,1.58
			c-3.339,0-6.056-1.179-8.148-3.535c-2.094-2.356-3.141-5.474-3.141-9.353V159.648z M1001.875,160.419
			c0,3.019,0.783,5.494,2.35,7.427c1.567,1.933,3.615,2.899,6.146,2.899c2.517,0,4.556-0.966,6.116-2.899s2.341-4.485,2.341-7.658
			v-0.54c0-1.926-0.356-3.692-1.069-5.297s-1.714-2.845-3.005-3.718c-1.291-0.873-2.771-1.31-4.44-1.31
			c-2.479,0-4.505,0.973-6.078,2.918c-1.573,1.946-2.359,4.499-2.359,7.658V160.419z"/>
		<path fill="#58595B" d="M1036.181,149.785c-0.591-0.116-1.221-0.173-1.888-0.173c-1.747,0-3.221,0.488-4.421,1.464
			c-1.201,0.976-2.059,2.389-2.572,4.238v17.319h-2.774v-25.236h2.717l0.058,4.007c1.477-2.979,3.847-4.469,7.108-4.469
			c0.783,0,1.399,0.103,1.85,0.308L1036.181,149.785z"/>
		<path fill="#58595B" d="M1040.298,147.396l0.097,4.103c0.925-1.515,2.087-2.655,3.486-3.419c1.4-0.764,2.954-1.146,4.662-1.146
			c3.981,0,6.512,1.631,7.591,4.893c0.898-1.566,2.103-2.774,3.611-3.622c1.51-0.848,3.169-1.271,4.98-1.271
			c5.419,0,8.181,2.954,8.283,8.862v16.837h-2.793v-16.625c-0.013-2.26-0.498-3.933-1.455-5.019
			c-0.956-1.085-2.514-1.628-4.671-1.628c-2.017,0.026-3.715,0.674-5.096,1.946s-2.148,2.813-2.302,4.624v16.702h-2.794v-16.837
			c-0.025-2.158-0.539-3.77-1.541-4.835s-2.543-1.599-4.623-1.599c-1.76,0-3.269,0.501-4.527,1.503
			c-1.259,1.001-2.189,2.492-2.793,4.469v17.299h-2.794v-25.236H1040.298z"/>
		<path fill="#58595B" d="M1093.175,172.633c-0.282-0.796-0.462-1.972-0.539-3.525c-0.977,1.284-2.225,2.27-3.747,2.957
			c-1.521,0.687-3.124,1.031-4.807,1.031c-2.427,0-4.392-0.674-5.895-2.023s-2.254-3.056-2.254-5.124
			c0-2.466,1.021-4.412,3.063-5.837c2.043-1.425,4.894-2.138,8.554-2.138h5.066v-2.871c0-1.811-0.559-3.233-1.676-4.267
			c-1.117-1.034-2.735-1.551-4.854-1.551c-1.952,0-3.564,0.498-4.836,1.493c-1.271,0.996-1.906,2.193-1.906,3.593l-2.794-0.019
			c0-2.004,0.932-3.741,2.794-5.211c1.861-1.47,4.154-2.206,6.877-2.206c2.813,0,5.031,0.703,6.656,2.109
			c1.624,1.406,2.462,3.368,2.514,5.885v11.944c0,2.44,0.257,4.27,0.771,5.491v0.27H1093.175z M1084.391,170.629
			c1.875,0,3.548-0.45,5.019-1.349c1.47-0.899,2.539-2.106,3.207-3.622v-5.548h-4.989c-2.787,0.026-4.967,0.533-6.54,1.522
			c-1.573,0.989-2.36,2.35-2.36,4.084c0,1.413,0.526,2.585,1.58,3.516C1081.359,170.164,1082.721,170.629,1084.391,170.629z"/>
		<path fill="#58595B" d="M1104.325,140.943v6.454h5.221v2.292h-5.221v16.818c0,1.4,0.253,2.44,0.761,3.121
			c0.507,0.681,1.352,1.021,2.533,1.021c0.463,0,1.214-0.077,2.254-0.231l0.115,2.292c-0.731,0.257-1.727,0.385-2.985,0.385
			c-1.914,0-3.304-0.556-4.171-1.667s-1.301-2.745-1.301-4.903v-16.837h-4.643v-2.292h4.643v-6.454H1104.325z"/>
		<path fill="#58595B" d="M1112.335,140.095c0-0.526,0.173-0.973,0.52-1.339c0.348-0.366,0.815-0.549,1.406-0.549
			s1.06,0.183,1.407,0.549c0.347,0.366,0.52,0.816,0.52,1.349c0,0.533-0.173,0.976-0.52,1.329c-0.348,0.354-0.816,0.53-1.407,0.53
			s-1.059-0.176-1.406-0.53C1112.508,141.081,1112.335,140.635,1112.335,140.095z M1115.629,172.633h-2.793v-25.236h2.793V172.633z"
			/>
		<path fill="#58595B" d="M1129.707,170.745c1.939,0,3.567-0.549,4.884-1.647s2.025-2.514,2.129-4.248h2.696
			c-0.077,1.541-0.559,2.944-1.444,4.209c-0.887,1.265-2.064,2.254-3.535,2.967s-3.047,1.069-4.729,1.069
			c-3.313,0-5.937-1.15-7.869-3.448c-1.934-2.299-2.899-5.394-2.899-9.286v-0.828c0-2.492,0.434-4.694,1.3-6.608
			c0.867-1.914,2.113-3.391,3.737-4.431c1.625-1.041,3.528-1.561,5.712-1.561c2.762,0,5.041,0.825,6.839,2.476
			s2.762,3.817,2.89,6.501h-2.696c-0.116-1.978-0.822-3.57-2.119-4.777c-1.298-1.207-2.936-1.811-4.913-1.811
			c-2.517,0-4.473,0.909-5.865,2.726c-1.395,1.817-2.091,4.363-2.091,7.638v0.829c0,3.21,0.696,5.718,2.091,7.522
			C1125.215,169.843,1127.177,170.745,1129.707,170.745z"/>
		<path fill="#58595B" d="M1157.25,166.218c0-1.387-0.556-2.498-1.666-3.333c-1.111-0.834-2.784-1.489-5.019-1.965
			c-2.234-0.475-3.972-1.021-5.211-1.637c-1.239-0.617-2.158-1.368-2.755-2.254c-0.598-0.886-0.896-1.958-0.896-3.217
			c0-1.991,0.831-3.634,2.494-4.932c1.663-1.297,3.792-1.946,6.387-1.946c2.813,0,5.069,0.697,6.771,2.09
			c1.701,1.394,2.552,3.208,2.552,5.442h-2.793c0-1.477-0.616-2.703-1.85-3.679c-1.232-0.976-2.793-1.464-4.681-1.464
			c-1.837,0-3.311,0.408-4.422,1.224c-1.11,0.815-1.666,1.872-1.666,3.169c0,1.259,0.462,2.234,1.387,2.928
			c0.925,0.693,2.61,1.329,5.058,1.907c2.446,0.578,4.282,1.191,5.509,1.84c1.227,0.649,2.136,1.432,2.727,2.351
			c0.59,0.918,0.886,2.032,0.886,3.342c0,2.132-0.86,3.833-2.581,5.105c-1.722,1.271-3.962,1.907-6.724,1.907
			c-2.941,0-5.326-0.71-7.156-2.129s-2.745-3.22-2.745-5.404h2.813c0.103,1.631,0.786,2.903,2.052,3.814
			c1.265,0.912,2.943,1.368,5.037,1.368c1.939,0,3.506-0.427,4.7-1.281C1156.653,168.61,1157.25,167.528,1157.25,166.218z"/>
		<path fill="#58595B" d="M509.406,191.438h2.852v23.535c0,3.168-0.916,5.697-2.747,7.585s-4.287,2.833-7.367,2.833
			c-3.257,0-5.76-0.85-7.509-2.548s-2.624-4.074-2.624-7.129h2.833c0,2.421,0.637,4.239,1.91,5.456
			c1.274,1.217,3.07,1.825,5.39,1.825c2.129,0,3.866-0.703,5.209-2.11s2.028-3.327,2.053-5.76V191.438z"/>
		<path fill="#58595B" d="M533.458,221.78c-1.647,2.408-4.29,3.612-7.927,3.612c-2.662,0-4.684-0.771-6.064-2.311
			c-1.382-1.539-2.085-3.823-2.11-6.853v-16.197h2.737v15.855c0,4.74,1.92,7.11,5.761,7.11c3.979,0,6.501-1.647,7.566-4.942v-18.023
			h2.757v24.905h-2.662L533.458,221.78z"/>
		<path fill="#58595B" d="M543.975,224.936h-2.757v-35.342h2.757V224.936z"/>
		<path fill="#58595B" d="M556.905,220.981l7.281-20.95h2.966l-10.646,29.144l-0.551,1.292c-1.356,3.017-3.46,4.525-6.312,4.525
			c-0.672,0-1.381-0.108-2.129-0.323l-0.019-2.281l1.426,0.151c1.356,0,2.449-0.336,3.279-1.007c0.83-0.672,1.537-1.819,2.12-3.441
			l1.236-3.365l-9.392-24.695h3.004L556.905,220.981z"/>
		<path fill="#58595B" d="M599.421,224.936h-20.988v-2.11l11.482-13.023c1.901-2.205,3.219-4.021,3.955-5.446
			c0.735-1.426,1.103-2.811,1.103-4.154c0-2.117-0.621-3.793-1.863-5.029c-1.242-1.235-2.953-1.854-5.133-1.854
			c-2.256,0-4.078,0.72-5.466,2.158c-1.388,1.439-2.082,3.312-2.082,5.618h-2.737c0-1.888,0.424-3.605,1.273-5.152
			c0.849-1.546,2.063-2.763,3.641-3.65c1.578-0.887,3.368-1.331,5.371-1.331c3.067,0,5.466,0.808,7.196,2.424
			c1.73,1.616,2.595,3.812,2.595,6.587c0,1.559-0.488,3.267-1.464,5.124c-0.976,1.857-2.693,4.173-5.152,6.949l-9.334,10.57h17.604
			V224.936z"/>
		<path fill="#58595B" d="M621.838,200.05c0,1.736-0.503,3.292-1.511,4.667c-1.008,1.375-2.342,2.386-4.002,3.032
			c1.927,0.659,3.473,1.724,4.639,3.194c1.166,1.471,1.749,3.175,1.749,5.114c0,2.865-0.973,5.136-2.918,6.815
			c-1.946,1.68-4.521,2.52-7.729,2.52c-3.231,0-5.82-0.837-7.766-2.51c-1.946-1.673-2.918-3.947-2.918-6.825
			c0-1.901,0.561-3.596,1.682-5.085s2.659-2.563,4.61-3.223c-1.66-0.646-2.981-1.657-3.963-3.032
			c-0.982-1.375-1.473-2.931-1.473-4.667c0-2.775,0.894-4.984,2.681-6.625c1.787-1.642,4.153-2.462,7.101-2.462
			c2.946,0,5.319,0.83,7.119,2.49C620.938,195.114,621.838,197.313,621.838,200.05z M619.956,216.077
			c0-2.091-0.744-3.805-2.233-5.143c-1.489-1.337-3.391-2.006-5.703-2.006c-2.313,0-4.208,0.659-5.685,1.978
			c-1.477,1.318-2.215,3.042-2.215,5.171c0,2.129,0.716,3.827,2.148,5.095c1.432,1.268,3.365,1.901,5.798,1.901
			c2.383,0,4.294-0.631,5.732-1.892C619.236,219.92,619.956,218.218,619.956,216.077z M619.082,200.031
			c0-1.914-0.663-3.51-1.987-4.791s-3.013-1.92-5.066-1.92c-2.091,0-3.786,0.618-5.085,1.854c-1.3,1.236-1.948,2.855-1.948,4.857
			c0,1.965,0.648,3.545,1.948,4.743c1.299,1.198,3,1.797,5.104,1.797c2.065,0,3.755-0.602,5.066-1.806
			S619.082,201.983,619.082,200.031z"/>
		<path fill="#58595B" d="M653.083,210.215v2.624h-19.242v-2.624H653.083z"/>
		<path fill="#58595B" d="M681.082,215.544h-15.208l-3.46,9.392h-2.966l12.68-33.498h2.7l12.68,33.498h-2.946L681.082,215.544z
			 M666.748,213.13h13.44l-6.71-18.25L666.748,213.13z"/>
		<path fill="#58595B" d="M705.344,221.78c-1.648,2.408-4.291,3.612-7.928,3.612c-2.662,0-4.684-0.771-6.064-2.311
			c-1.382-1.539-2.085-3.823-2.11-6.853v-16.197h2.737v15.855c0,4.74,1.92,7.11,5.761,7.11c3.979,0,6.502-1.647,7.566-4.942v-18.023
			h2.756v24.905H705.4L705.344,221.78z"/>
		<path fill="#58595B" d="M711.677,212.255c0-3.891,0.862-6.977,2.586-9.258s4.068-3.422,7.034-3.422
			c3.384,0,5.956,1.35,7.718,4.049l0.152-3.593h2.566v24.391c0,3.206-0.896,5.747-2.69,7.623c-1.793,1.876-4.224,2.813-7.29,2.813
			c-1.736,0-3.391-0.387-4.962-1.159c-1.572-0.773-2.808-1.807-3.707-3.099l1.54-1.654c1.938,2.396,4.252,3.593,6.938,3.593
			c2.307,0,4.104-0.681,5.39-2.043c1.286-1.363,1.955-3.248,2.006-5.656v-3.117c-1.762,2.445-4.335,3.669-7.719,3.669
			c-2.877,0-5.189-1.15-6.938-3.451c-1.749-2.3-2.624-5.408-2.624-9.324V212.255z M714.452,212.73c0,3.182,0.638,5.687,1.911,7.519
			c1.273,1.831,3.07,2.747,5.39,2.747c3.384,0,5.785-1.515,7.205-4.544v-11.578c-0.646-1.597-1.575-2.813-2.785-3.65
			c-1.211-0.836-2.671-1.255-4.382-1.255c-2.308,0-4.106,0.91-5.399,2.729C715.099,206.517,714.452,209.194,714.452,212.73z"/>
		<path fill="#58595B" d="M752.479,221.78c-1.648,2.408-4.291,3.612-7.928,3.612c-2.662,0-4.684-0.771-6.064-2.311
			c-1.382-1.539-2.085-3.823-2.11-6.853v-16.197h2.737v15.855c0,4.74,1.92,7.11,5.761,7.11c3.979,0,6.502-1.647,7.566-4.942v-18.023
			h2.756v24.905h-2.661L752.479,221.78z"/>
		<path fill="#58595B" d="M774.82,218.605c0-1.369-0.549-2.465-1.645-3.289c-1.097-0.824-2.747-1.47-4.953-1.939
			c-2.205-0.469-3.919-1.008-5.142-1.616c-1.224-0.608-2.13-1.35-2.719-2.225c-0.59-0.875-0.884-1.933-0.884-3.175
			c0-1.964,0.82-3.586,2.462-4.867c1.641-1.28,3.741-1.92,6.302-1.92c2.775,0,5.003,0.688,6.683,2.063
			c1.679,1.375,2.519,3.166,2.519,5.371h-2.757c0-1.458-0.608-2.668-1.825-3.631c-1.216-0.963-2.756-1.445-4.619-1.445
			c-1.813,0-3.267,0.402-4.363,1.207c-1.097,0.805-1.645,1.847-1.645,3.127c0,1.242,0.456,2.205,1.369,2.89
			c0.912,0.684,2.576,1.312,4.99,1.882s4.227,1.176,5.438,1.815c1.21,0.64,2.106,1.414,2.689,2.319
			c0.583,0.906,0.875,2.006,0.875,3.299c0,2.104-0.85,3.783-2.548,5.037c-1.698,1.255-3.91,1.883-6.635,1.883
			c-2.902,0-5.257-0.701-7.063-2.101c-1.806-1.4-2.709-3.178-2.709-5.333h2.775c0.102,1.609,0.776,2.864,2.024,3.765
			c1.249,0.899,2.906,1.35,4.972,1.35c1.914,0,3.46-0.422,4.639-1.265S774.82,219.898,774.82,218.605z"/>
		<path fill="#58595B" d="M785.602,193.663v6.369h5.152v2.262h-5.152v16.597c0,1.382,0.251,2.408,0.751,3.08
			c0.501,0.671,1.334,1.007,2.5,1.007c0.456,0,1.198-0.075,2.225-0.228l0.114,2.262c-0.723,0.254-1.705,0.381-2.947,0.381
			c-1.889,0-3.26-0.549-4.115-1.645c-0.855-1.097-1.283-2.709-1.283-4.839v-16.615h-4.582v-2.262h4.582v-6.369H785.602z"/>
		<path fill="#58595B" d="M820.418,214.137h5.209v2.338h-5.209v8.46h-2.775v-8.46h-15.76v-1.578l15.513-23.459h3.022V214.137z
			 M805.267,214.137h12.376v-19.144l-1.217,2.129L805.267,214.137z"/>
		<path fill="#58595B" d="M827.037,231.19l-1.635-1.197c1.395-1.863,2.11-3.803,2.148-5.817v-3.574h2.699v2.89
			C830.25,226.684,829.179,229.251,827.037,231.19z"/>
		<path fill="#58595B" d="M864.647,224.936H843.66v-2.11l11.482-13.023c1.9-2.205,3.219-4.021,3.954-5.446
			c0.734-1.426,1.103-2.811,1.103-4.154c0-2.117-0.621-3.793-1.863-5.029c-1.242-1.235-2.953-1.854-5.133-1.854
			c-2.256,0-4.078,0.72-5.466,2.158c-1.388,1.439-2.081,3.312-2.081,5.618h-2.738c0-1.888,0.425-3.605,1.274-5.152
			c0.849-1.546,2.063-2.763,3.641-3.65c1.577-0.887,3.367-1.331,5.37-1.331c3.067,0,5.466,0.808,7.195,2.424
			c1.73,1.616,2.596,3.812,2.596,6.587c0,1.559-0.488,3.267-1.464,5.124c-0.977,1.857-2.693,4.173-5.152,6.949l-9.334,10.57h17.604
			V224.936z"/>
		<path fill="#58595B" d="M887.54,210.962c0,4.728-0.868,8.314-2.604,10.761c-1.736,2.445-4.29,3.669-7.661,3.669
			c-3.321,0-5.862-1.201-7.623-3.603c-1.763-2.402-2.669-5.896-2.719-10.485v-6.007c0-4.702,0.874-8.267,2.623-10.694
			c1.749-2.427,4.303-3.64,7.661-3.64c3.321,0,5.855,1.172,7.604,3.517c1.749,2.345,2.655,5.792,2.719,10.342V210.962z
			 M884.765,204.955c0-3.827-0.624-6.723-1.873-8.688c-1.248-1.964-3.14-2.947-5.675-2.947c-2.483,0-4.354,0.957-5.607,2.871
			c-1.255,1.914-1.901,4.747-1.939,8.498v6.578c0,3.815,0.649,6.737,1.948,8.764c1.3,2.028,3.185,3.042,5.656,3.042
			c2.445,0,4.303-0.989,5.57-2.966c1.267-1.977,1.907-4.879,1.92-8.707V204.955z"/>
		<path fill="#58595B" d="M903.816,224.936h-2.756v-30.19l-9.126,3.384v-2.585l11.426-4.24h0.456V224.936z"/>
		<path fill="#58595B" d="M935.321,193.016l-14.315,31.92h-2.89l14.239-31.159h-19.068v-2.338h22.034V193.016z"/>
		<path fill="#58595B" d="M518.432,245.703H506.49v32.326h-2.946v-32.326h-11.922v-2.511h26.81V245.703z"/>
		<path fill="#58595B" d="M530.079,278.503c-2.201,0-4.191-0.541-5.971-1.622c-1.78-1.08-3.164-2.593-4.152-4.537
			c-0.988-1.944-1.482-4.115-1.482-6.515v-1.028c0-2.491,0.481-4.735,1.443-6.731c0.962-1.997,2.307-3.565,4.034-4.706
			c1.727-1.14,3.591-1.71,5.595-1.71c3.15,0,5.648,1.074,7.493,3.223s2.768,5.081,2.768,8.798v1.602H521.32v0.554
			c0,2.926,0.84,5.368,2.521,7.325s3.799,2.937,6.356,2.937c1.529,0,2.88-0.28,4.053-0.841c1.173-0.56,2.241-1.453,3.203-2.679
			l1.799,1.364C537.144,276.981,534.085,278.503,530.079,278.503z M529.545,254.105c-2.148,0-3.961,0.788-5.437,2.363
			c-1.477,1.575-2.373,3.693-2.689,6.356h15.521v-0.297c-0.079-2.491-0.788-4.518-2.125-6.08
			C533.476,254.886,531.72,254.105,529.545,254.105z"/>
		<path fill="#58595B" d="M544.909,256.517c0.936-1.555,2.138-2.755,3.608-3.598c1.47-0.844,3.075-1.266,4.814-1.266
			c2.781,0,4.847,0.781,6.198,2.343s2.04,3.911,2.066,7.049v16.983h-2.847v-17.023c-0.027-2.307-0.521-4.026-1.483-5.16
			c-0.962-1.134-2.504-1.7-4.626-1.7c-1.767,0-3.332,0.554-4.696,1.66c-1.364,1.107-2.376,2.604-3.035,4.488v17.735h-2.847v-36.755
			h2.847V256.517z"/>
		<path fill="#58595B" d="M577.612,254.58c-0.606-0.118-1.252-0.178-1.938-0.178c-1.792,0-3.305,0.501-4.538,1.503
			s-2.112,2.451-2.639,4.35v17.774h-2.847v-25.9h2.788l0.06,4.112c1.516-3.058,3.947-4.587,7.295-4.587
			c0.804,0,1.437,0.105,1.898,0.316L577.612,254.58z"/>
		<path fill="#58595B" d="M595.17,278.029c-0.29-0.817-0.474-2.023-0.553-3.618c-1.002,1.317-2.284,2.329-3.846,3.034
			s-3.206,1.059-4.933,1.059c-2.491,0-4.508-0.692-6.05-2.076s-2.313-3.137-2.313-5.26c0-2.53,1.048-4.527,3.144-5.99
			s5.022-2.194,8.778-2.194h5.2v-2.946c0-1.858-0.573-3.318-1.72-4.379c-1.146-1.062-2.807-1.592-4.982-1.592
			c-2.004,0-3.658,0.511-4.963,1.532c-1.305,1.021-1.957,2.251-1.957,3.688l-2.867-0.021c0-2.056,0.956-3.838,2.867-5.348
			c1.911-1.509,4.264-2.264,7.058-2.264c2.887,0,5.164,0.722,6.831,2.165c1.667,1.443,2.527,3.457,2.58,6.04v12.258
			c0,2.505,0.264,4.383,0.791,5.635v0.277H595.17z M586.154,275.972c1.924,0,3.641-0.461,5.15-1.384s2.606-2.161,3.292-3.717v-5.694
			h-5.121c-2.86,0.026-5.098,0.547-6.712,1.562c-1.615,1.016-2.422,2.412-2.422,4.191c0,1.45,0.54,2.653,1.621,3.608
			C583.043,275.495,584.441,275.972,586.154,275.972z"/>
		<path fill="#58595B" d="M604.483,252.128l0.1,4.429c0.975-1.595,2.188-2.811,3.638-3.648c1.449-0.837,3.051-1.255,4.805-1.255
			c2.78,0,4.847,0.781,6.198,2.343c1.351,1.562,2.039,3.911,2.065,7.049v16.983h-2.847v-17.023c-0.026-2.307-0.521-4.026-1.483-5.16
			c-0.962-1.134-2.504-1.7-4.626-1.7c-1.767,0-3.331,0.554-4.695,1.66c-1.364,1.107-2.376,2.604-3.035,4.488v17.735h-2.847v-25.9
			H604.483z"/>
		<path fill="#58595B" d="M624.771,284.534l-1.7-1.246c1.45-1.938,2.194-3.954,2.234-6.05v-3.717h2.808v3.005
			C628.112,279.847,626.998,282.517,624.771,284.534z"/>
		<path fill="#58595B" d="M645.218,278.029h-2.945v-34.837h2.945V278.029z"/>
		<path fill="#58595B" d="M662.657,254.58c-0.606-0.118-1.252-0.178-1.938-0.178c-1.793,0-3.305,0.501-4.537,1.503
			c-1.233,1.002-2.112,2.451-2.64,4.35v17.774h-2.848v-25.9h2.788l0.06,4.112c1.516-3.058,3.947-4.587,7.296-4.587
			c0.804,0,1.437,0.105,1.897,0.316L662.657,254.58z"/>
		<path fill="#58595B" d="M680.216,278.029c-0.29-0.817-0.475-2.023-0.554-3.618c-1.002,1.317-2.284,2.329-3.846,3.034
			s-3.206,1.059-4.933,1.059c-2.491,0-4.508-0.692-6.05-2.076c-1.543-1.384-2.313-3.137-2.313-5.26c0-2.53,1.048-4.527,3.144-5.99
			s5.021-2.194,8.778-2.194h5.2v-2.946c0-1.858-0.574-3.318-1.721-4.379c-1.146-1.062-2.808-1.592-4.982-1.592
			c-2.003,0-3.657,0.511-4.962,1.532c-1.306,1.021-1.958,2.251-1.958,3.688l-2.866-0.021c0-2.056,0.955-3.838,2.866-5.348
			c1.911-1.509,4.264-2.264,7.059-2.264c2.887,0,5.163,0.722,6.831,2.165c1.667,1.443,2.527,3.457,2.58,6.04v12.258
			c0,2.505,0.264,4.383,0.791,5.635v0.277H680.216z M671.2,275.972c1.924,0,3.641-0.461,5.15-1.384
			c1.509-0.923,2.606-2.161,3.292-3.717v-5.694h-5.121c-2.86,0.026-5.098,0.547-6.713,1.562c-1.614,1.016-2.422,2.412-2.422,4.191
			c0,1.45,0.541,2.653,1.622,3.608C668.089,275.495,669.486,275.972,671.2,275.972z"/>
		<path fill="#58595B" d="M689.529,252.128l0.1,4.429c0.975-1.595,2.188-2.811,3.638-3.648c1.449-0.837,3.051-1.255,4.805-1.255
			c2.78,0,4.847,0.781,6.198,2.343c1.351,1.562,2.039,3.911,2.065,7.049v16.983h-2.847v-17.023c-0.026-2.307-0.521-4.026-1.483-5.16
			c-0.962-1.134-2.504-1.7-4.626-1.7c-1.767,0-3.331,0.554-4.695,1.66c-1.364,1.107-2.376,2.604-3.035,4.488v17.735h-2.848v-25.9
			H689.529z"/>
	</g>
</g>
</svg>
