<?xml version="1.0" encoding="utf-8"?>
<!-- Generator: Adobe Illustrator 16.0.0, SVG Export Plug-In . SVG Version: 6.00 Build 0)  -->
<!DOCTYPE svg PUBLIC "-//W3C//DTD SVG 1.1//EN" "http://www.w3.org/Graphics/SVG/1.1/DTD/svg11.dtd">
<svg version="1.1" id="Layer_1" xmlns="http://www.w3.org/2000/svg" xmlns:xlink="http://www.w3.org/1999/xlink" x="0px" y="0px"
	 width="343.571px" height="122.143px" viewBox="0 0 343.571 122.143" enable-background="new 0 0 343.571 122.143"
	 xml:space="preserve">
<g>
	<g>
		<g>
			<g id="_x32__3_">
				<g>
					<path fill="#FFFFFF" d="M84.923,80.059c-0.065-0.058-0.411-0.108-0.504-0.098c-10.996,1.227-15.846,7.183-14.947,8.366
						c0.153,0.676,10.155,5.946,21.144,3.109c0.208-0.065,0.356-0.438,0.337-0.698C90.791,88.506,87.057,81.225,84.923,80.059z"/>
				</g>
				<g>
					<path fill="none" stroke="#6D6E71" stroke-miterlimit="10" d="M84.923,80.059c-0.065-0.058-0.411-0.108-0.504-0.098
						c-10.996,1.227-15.846,7.183-14.947,8.366c0.153,0.676,10.155,5.946,21.144,3.109c0.208-0.065,0.356-0.438,0.337-0.698
						C90.791,88.506,87.057,81.225,84.923,80.059z"/>
				</g>
			</g>
			<g>
				<path fill="#FFFFFF" stroke="#6D6E71" stroke-miterlimit="10" d="M119.412,66.884c-2.088-0.234-4.721,6.776-0.81,10.343
					c1.65,1.48,4,2.288,7.44,1.008c3.362-1.253,4.93-3.888,5.104-6.975c-0.084-4.818-5.781-3.513-4.482-6.415
					c1.438-2.335,3.538-0.277,5.042-0.934c3.553-1.553,3.057-9.469-0.498-10.461c-1.651-0.463-6.06,3.291-6.412,4.171
					c-0.352,0.882,1.947,2.592,1.307,5.668C125.254,66.224,122.016,67.165,119.412,66.884z"/>
				<path fill="#FFFFFF" stroke="#6D6E71" stroke-miterlimit="10" d="M118.064,56.599c-4.249-1.978-4.365-11.286,0.196-12.24
					c1.752-0.108,4.426,0.274,5.789,1.494c1.487,1.33,2.87,2.885,3.175,5.106c0.305,2.223-1.899,4.84-3.84,5.482
					C122.256,56.934,119.003,57.036,118.064,56.599z"/>
				<path fill="#FFFFFF" stroke="#6D6E71" stroke-miterlimit="10" d="M38.957,58.909c-2.092,0.234-4.728-6.776-0.811-10.342
					c1.653-1.48,4.006-2.29,7.452-1.008c3.366,1.253,4.937,3.889,5.112,6.975c-0.085,4.818-5.789,3.511-4.489,6.413
					c1.44,2.335,3.979-0.771,5.244,1.645c1.266,2.417,1.37,9.204-0.693,9.75c-1.66,0.44-6.069-3.289-6.421-4.171
					s1.95-2.592,1.309-5.667C44.808,59.57,41.564,58.629,38.957,58.909z"/>
				<path fill="#FFFFFF" stroke="#6D6E71" stroke-miterlimit="10" d="M37.607,69.195c-4.255,1.976-4.372,11.285,0.197,12.238
					c1.755,0.105,4.433-0.274,5.798-1.495c1.489-1.331,2.874-2.883,3.18-5.105c0.305-2.222-1.902-4.841-3.847-5.481
					C41.806,68.858,38.548,68.757,37.607,69.195z"/>
				<path fill="#FFFFFF" stroke="#6D6E71" stroke-miterlimit="10" d="M111.213,75.151c5.527-12.402,0.688-22.631,0.649-22.707
					c-0.379-0.891-1.344-0.329-1.344-0.329s-13.182,5.257-9.17,20.379c0.047,0.191,0.258,0.314,0.362,0.26
					c4.168-1.765,6.544,0.021,8.88,2.555C110.659,75.384,111.148,75.296,111.213,75.151z"/>
				<g>
					<g id="_x31__3_">
						<g>
							<path fill="#FFFFFF" d="M39.612,60.573c-1.323,0.076-1.819,1.473-1.819,1.473c-0.142,0.351-0.757,3.233-0.051,4.38
								c0.728,1.186,3.15,1.296,4.115,0.748c0.964-0.547,2.184-2.045,2.182-4.047C44.036,61.124,40.935,60.497,39.612,60.573z"/>
						</g>
						<g>
							<path fill="none" stroke="#6D6E71" stroke-miterlimit="10" d="M39.612,60.573c-1.323,0.076-1.819,1.473-1.819,1.473
								c-0.142,0.351-0.757,3.233-0.051,4.38c0.728,1.186,3.15,1.296,4.115,0.748c0.964-0.547,2.184-2.045,2.182-4.047
								C44.036,61.124,40.935,60.497,39.612,60.573z"/>
						</g>
					</g>
					<path fill="#FFFFFF" stroke="#6D6E71" stroke-miterlimit="10" d="M109.229,77.258c0.029,3.771-10.493,12.215-12.445,11.678
						c-3.718-0.239-5.622-2.162-6.309-4.123s-0.87-6.513,3.206-7.859c3.025-1.002,5.853,1.385,7.108,2.679
						c0.187,0.188,0.433,0.048,0.423-0.241c-0.278-1.362-0.5-3.751,0.987-4.893C104.347,72.85,108.489,73.902,109.229,77.258z"/>
					<path fill="#FFFFFF" stroke="#6D6E71" stroke-miterlimit="10" d="M118.25,63.746c0,0,0.495,1.396,1.815,1.473
						c1.321,0.078,4.418-0.55,4.42-2.553c0.002-2.001-1.216-3.501-2.178-4.048c-0.963-0.546-3.382-0.437-4.109,0.748
						C117.495,60.514,118.108,63.396,118.25,63.746z"/>
				</g>
				<g>
					<g id="_x34__2_">
						<g>
							<path fill="#FFFFFF" d="M61.382,57.738c-0.345-0.596-0.848-0.41-1.222-0.066c-8.574,7.744-4.244,18.539-2.624,21.822
								c0.309,0.727,0.868,0.716,1.23,0.367C61.038,77.708,67.643,69.994,61.382,57.738z"/>
						</g>
						<g>
							<path fill="none" stroke="#6D6E71" stroke-miterlimit="10" d="M61.382,57.738c-0.345-0.596-0.848-0.41-1.222-0.066
								c-8.574,7.744-4.244,18.539-2.624,21.822c0.309,0.727,0.868,0.716,1.23,0.367C61.038,77.708,67.643,69.994,61.382,57.738z"/>
						</g>
					</g>
					<path fill="#FFFFFF" stroke="#6D6E71" stroke-miterlimit="10" d="M70.441,34.922c3.045-1.201,14.698-4.954,21.78,4.643
						c0.534,0.629,0.119,1.067-0.31,1.229c-12.918,5.029-19.94-2.527-21.745-4.888C69.8,35.396,70.198,35.006,70.441,34.922z"/>
				</g>
			</g>
		</g>
		<g>
			<g id="_x33__2_">
				<g>
					<path fill-rule="evenodd" clip-rule="evenodd" fill="#6D6E71" d="M78.027,78.844C71.7,76.249,67.32,69.945,67.516,62.701
						c0.115-4.298,1.821-8.178,4.537-11.092c0.123-0.108,0.022-0.589-0.339-0.482c-5.346,1.879-8.048,3.706-9.074,4.51
						c-0.151,0.093-0.402,0.512-0.214,0.845c1.387,2.245,6.876,13.106-1.248,23c-0.249,0.254-0.38,0.938-0.088,1.281
						c1.569,2.072,3.409,3.933,5.468,5.525c0.284,0.241,0.727,0.024,0.811-0.097c1.538-2.133,5.064-5.021,10.649-6.9
						C78.151,79.273,78.369,78.989,78.027,78.844z"/>
				</g>
			</g>
			<path fill-rule="evenodd" clip-rule="evenodd" fill="#6D6E71" d="M129.626,35.045c-2.272,0-9.074,0-11.231,0
				c-0.284,0-0.644,0.303-0.665,0.644c0,1.354,0,4.796,0,6.169c0,0.263,0.303,0.612,0.585,0.57c0.944-0.126,2.852-0.148,4.397,0.405
				c2.143,0.768,4.047,2.687,4.734,3.737c1.009,1.816,2.029,1.596,2.404,1.587c0.49,0.019,0.523-0.569,0.523-0.569s0-9.526,0-11.816
				C130.374,35.426,130.062,35.064,129.626,35.045z"/>
			<path fill-rule="evenodd" clip-rule="evenodd" fill="#6D6E71" d="M117.789,80.196c-0.008,2.05,0,7.701,0.002,9.799
				c0.002,0.502,0.382,0.735,0.701,0.754c2.243,0.003,9.224,0,11.296-0.002c0.443,0.024,0.578-0.39,0.585-0.593
				c-0.001-2.106-0.006-8.933-0.001-11.404c0.019-0.615-0.395-0.465-0.481-0.402c-1.333,1.035-5.087,4.443-11.487,1.424
				C118.311,79.711,117.811,79.813,117.789,80.196z"/>
			<path fill-rule="evenodd" clip-rule="evenodd" fill="#6D6E71" d="M37.331,45.598c-0.009-2.05,0-7.701,0.002-9.798
				c0.002-0.503,0.383-0.735,0.702-0.755c2.245-0.003,9.237,0.001,11.313,0.003c0.444-0.024,0.579,0.389,0.586,0.593
				c-0.001,2.106-0.006,8.932-0.001,11.402c0.019,0.617-0.396,0.466-0.481,0.402c-1.335-1.034-5.095-4.442-11.505-1.423
				C37.854,46.082,37.353,45.98,37.331,45.598z"/>
			<path fill-rule="evenodd" clip-rule="evenodd" fill="#6D6E71" d="M49.161,90.75c-2.273,0-9.076,0-11.235,0
				c-0.284,0-0.644-0.305-0.665-0.644c0-1.356,0-4.804,0-6.178c0-0.263,0.303-0.612,0.585-0.57c0.944,0.125,2.853,0.147,4.398-0.407
				c2.143-0.769,4.048-2.688,4.735-3.743c1.009-1.817,2.029-1.597,2.404-1.587c0.49-0.02,0.524,0.569,0.524,0.569s0,9.537,0,11.833
				C49.909,90.369,49.597,90.729,49.161,90.75z"/>
			<path fill-rule="evenodd" clip-rule="evenodd" fill="#6D6E71" d="M100.747,57.419c-1.933-12.097-6.05-18.828-10.753-22.359
				c-0.161-0.174-0.134-0.604,0.328-0.589c8.596,1.772,15.897,7.402,19.945,14.835c0.131,0.198-0.009,0.572-0.228,0.659
				c-2.488,1.194-6.35,3.435-8.788,7.74C101.013,57.934,100.797,57.754,100.747,57.419z"/>
			<path fill-rule="evenodd" clip-rule="evenodd" fill="#6D6E71" d="M96.877,51.64c-2.989-3.229-7.226-5.296-11.97-5.424
				c-1.604-0.042-3.163,0.139-4.644,0.515c-0.011-0.013-0.022-0.028-0.033-0.043c-13.973,3.069-21.097,8.244-24.38,13.731
				c-0.189,0.277-0.556,0.059-0.533-0.133c0.916-9.503,6.355-17.63,14.094-22.27c0.23-0.166,0.533-0.046,0.61,0.052
				c9.225,9.649,21.013,4.915,23.226,3.804c0.261-0.132,0.548,0.027,0.625,0.157c0.618,0.924,2.221,3.694,3.63,9.273
				C97.555,51.741,97.044,51.824,96.877,51.64z"/>
		</g>
	</g>
	<g>
		<path fill="#6D6E71" d="M140.911,49.075v-1.277l5.078-5.645c0.757-0.858,1.278-1.557,1.562-2.098
			c0.295-0.557,0.442-1.118,0.442-1.686c0-0.769-0.237-1.41-0.71-1.922c-0.474-0.508-1.105-0.76-1.896-0.76
			c-0.935,0-1.665,0.266-2.188,0.794c-0.529,0.528-0.799,1.266-0.81,2.213h-1.762c0.017-1.276,0.443-2.342,1.278-3.199
			c0.908-0.83,2.068-1.245,3.482-1.245c1.347,0,2.419,0.359,3.216,1.077c0.779,0.702,1.169,1.641,1.169,2.814
			c0,1.442-0.919,3.16-2.756,5.153l-4.017,4.352h7.45v1.428H140.911z"/>
		<path fill="#6D6E71" d="M158.649,42.628c-0.852,1.014-1.902,1.52-3.149,1.52c-0.801,0-1.525-0.213-2.171-0.643
			c-0.618-0.411-1.102-0.981-1.453-1.712c-0.346-0.769-0.518-1.601-0.518-2.497c0-0.976,0.187-1.854,0.56-2.64
			c0.373-0.773,0.899-1.369,1.579-1.786c0.685-0.412,1.475-0.619,2.372-0.619c1.437,0,2.569,0.541,3.399,1.62
			c0.835,1.08,1.253,2.553,1.253,4.419v0.544c0,2.85-0.562,4.936-1.687,6.255c-1.125,1.301-2.82,1.967-5.086,1.996h-0.318v-1.479
			h0.343c1.581-0.022,2.781-0.43,3.6-1.219c0.834-0.813,1.291-2.058,1.369-3.734L158.649,42.628z M157.563,42.119
			c0.545-0.391,0.941-0.871,1.187-1.444v-0.769c0-1.248-0.271-2.256-0.811-3.023c-0.545-0.78-1.233-1.169-2.062-1.169
			c-0.841,0-1.515,0.321-2.021,0.968c-0.507,0.634-0.76,1.474-0.76,2.514c0,1.013,0.242,1.854,0.726,2.522
			c0.501,0.658,1.164,0.985,1.988,0.985C156.45,42.703,157.035,42.508,157.563,42.119z"/>
		<path fill="#6D6E71" d="M163.236,37.276h1.193v0.784h-1.193v3.986c0,0.273,0.056,0.472,0.167,0.595
			c0.116,0.134,0.305,0.2,0.564,0.2c0.137,0,0.3-0.02,0.492-0.059v0.817c-0.292,0.075-0.562,0.113-0.809,0.113
			c-0.474,0-0.834-0.145-1.081-0.435c-0.243-0.285-0.365-0.696-0.365-1.232v-3.986h-1.159v-0.784h1.159v-1.543h1.032V37.276z"/>
		<path fill="#6D6E71" d="M166.231,38.021c0.532-0.575,1.172-0.863,1.918-0.863c1.328,0,1.998,0.752,2.01,2.255v4.182h-1.031v-4.192
			c-0.007-0.917-0.443-1.376-1.31-1.376c-0.348,0-0.662,0.096-0.945,0.292c-0.266,0.186-0.48,0.44-0.643,0.765v4.512h-1.028v-8.992
			h1.028V38.021z"/>
		<path fill="#6D6E71" d="M141.653,62.156h-0.745v-8.809h0.745V62.156z"/>
		<path fill="#6D6E71" d="M143.832,55.607l0.026,1.12c0.246-0.404,0.553-0.711,0.92-0.922c0.366-0.212,0.771-0.318,1.215-0.318
			c0.703,0,1.226,0.196,1.568,0.593c0.341,0.395,0.516,0.988,0.522,1.782v4.294h-0.72v-4.305c-0.006-0.584-0.131-1.018-0.375-1.305
			c-0.243-0.285-0.633-0.43-1.17-0.43c-0.447,0-0.843,0.14-1.188,0.421c-0.346,0.279-0.602,0.657-0.768,1.135v4.483h-0.72v-6.549
			H143.832z"/>
		<path fill="#6D6E71" d="M150.342,53.933v1.675h1.355v0.594h-1.355v4.367c0,0.361,0.066,0.633,0.197,0.809
			c0.132,0.178,0.351,0.267,0.658,0.267c0.12,0,0.315-0.02,0.585-0.061l0.03,0.596c-0.19,0.066-0.448,0.1-0.775,0.1
			c-0.497,0-0.857-0.145-1.083-0.433s-0.337-0.713-0.337-1.273v-4.371h-1.206v-0.594h1.206v-1.675H150.342z"/>
		<path fill="#6D6E71" d="M155.001,62.278c-0.557,0-1.061-0.137-1.51-0.41c-0.45-0.273-0.8-0.656-1.051-1.148
			c-0.25-0.491-0.375-1.041-0.375-1.647v-0.26c0-0.631,0.122-1.198,0.365-1.704c0.243-0.503,0.583-0.9,1.02-1.189
			c0.437-0.288,0.909-0.432,1.415-0.432c0.797,0,1.429,0.271,1.896,0.815c0.466,0.542,0.7,1.285,0.7,2.225v0.405h-4.675v0.14
			c0,0.74,0.212,1.357,0.638,1.854c0.425,0.493,0.96,0.743,1.607,0.743c0.386,0,0.729-0.072,1.025-0.214
			c0.297-0.141,0.567-0.367,0.81-0.677l0.455,0.346C156.788,61.893,156.015,62.278,155.001,62.278z M154.866,56.107
			c-0.543,0-1.001,0.198-1.375,0.598c-0.374,0.397-0.6,0.934-0.681,1.607h3.926v-0.075c-0.02-0.63-0.199-1.143-0.538-1.537
			C155.86,56.306,155.416,56.107,154.866,56.107z"/>
		<path fill="#6D6E71" d="M161.161,56.228c-0.153-0.03-0.317-0.046-0.49-0.046c-0.453,0-0.836,0.128-1.148,0.382
			c-0.312,0.252-0.534,0.618-0.667,1.099v4.494h-0.72v-6.549h0.705l0.015,1.039c0.383-0.772,0.999-1.159,1.846-1.159
			c0.203,0,0.363,0.026,0.479,0.081L161.161,56.228z"/>
		<path fill="#6D6E71" d="M162.26,55.607l0.025,1.12c0.247-0.404,0.554-0.711,0.92-0.922c0.367-0.212,0.771-0.318,1.215-0.318
			c0.704,0,1.226,0.196,1.568,0.593c0.342,0.395,0.516,0.988,0.522,1.782v4.294h-0.72v-4.305c-0.007-0.584-0.132-1.018-0.375-1.305
			c-0.243-0.285-0.633-0.43-1.17-0.43c-0.447,0-0.843,0.14-1.188,0.421c-0.345,0.279-0.601,0.657-0.768,1.135v4.483h-0.72v-6.549
			H162.26z"/>
		<path fill="#6D6E71" d="M171.78,62.156c-0.073-0.205-0.12-0.51-0.14-0.912c-0.254,0.331-0.578,0.588-0.973,0.767
			c-0.395,0.178-0.811,0.268-1.248,0.268c-0.63,0-1.14-0.176-1.529-0.525c-0.39-0.351-0.585-0.795-0.585-1.329
			c0-0.641,0.265-1.147,0.795-1.517c0.531-0.369,1.271-0.556,2.221-0.556h1.315v-0.744c0-0.469-0.146-0.84-0.436-1.107
			c-0.29-0.27-0.71-0.403-1.26-0.403c-0.507,0-0.925,0.129-1.255,0.388c-0.33,0.26-0.495,0.57-0.495,0.934l-0.725-0.005
			c0-0.521,0.241-0.972,0.725-1.354c0.483-0.381,1.078-0.571,1.785-0.571c0.73,0,1.307,0.182,1.728,0.548
			c0.422,0.364,0.639,0.874,0.652,1.528v3.099c0,0.634,0.066,1.108,0.201,1.426v0.068H171.78z M169.5,61.637
			c0.487,0,0.921-0.115,1.303-0.35c0.381-0.232,0.659-0.547,0.833-0.939v-1.44h-1.295c-0.724,0.008-1.29,0.139-1.698,0.396
			c-0.408,0.256-0.613,0.61-0.613,1.06c0,0.368,0.137,0.671,0.41,0.913C168.713,61.517,169.066,61.637,169.5,61.637z"/>
		<path fill="#6D6E71" d="M174.675,53.933v1.675h1.354v0.594h-1.354v4.367c0,0.361,0.064,0.633,0.197,0.809
			c0.131,0.178,0.351,0.267,0.657,0.267c0.12,0,0.315-0.02,0.585-0.061l0.03,0.596c-0.19,0.066-0.448,0.1-0.774,0.1
			c-0.498,0-0.858-0.145-1.084-0.433c-0.225-0.288-0.337-0.713-0.337-1.273v-4.371h-1.206v-0.594h1.206v-1.675H174.675z"/>
		<path fill="#6D6E71" d="M176.753,53.712c0-0.137,0.045-0.252,0.135-0.348c0.091-0.097,0.212-0.142,0.365-0.142
			s0.275,0.045,0.365,0.142c0.09,0.096,0.135,0.211,0.135,0.351c0,0.137-0.045,0.254-0.135,0.344
			c-0.09,0.092-0.212,0.139-0.365,0.139s-0.274-0.047-0.365-0.139C176.798,53.969,176.753,53.852,176.753,53.712z M177.608,62.156
			h-0.725v-6.549h0.725V62.156z"/>
		<path fill="#6D6E71" d="M178.442,58.787c0-0.629,0.121-1.198,0.365-1.702c0.243-0.505,0.588-0.896,1.035-1.178
			c0.446-0.28,0.951-0.42,1.516-0.42c0.873,0,1.58,0.306,2.119,0.917c0.539,0.612,0.811,1.421,0.811,2.428v0.156
			c0,0.632-0.121,1.203-0.365,1.709c-0.244,0.508-0.586,0.897-1.03,1.171c-0.443,0.273-0.95,0.41-1.521,0.41
			c-0.866,0-1.571-0.307-2.115-0.917c-0.543-0.613-0.814-1.423-0.814-2.429V58.787z M179.167,58.988c0,0.782,0.204,1.425,0.61,1.927
			c0.407,0.503,0.938,0.754,1.595,0.754c0.654,0,1.184-0.251,1.588-0.754c0.406-0.502,0.607-1.165,0.607-1.988v-0.14
			c0-0.5-0.093-0.958-0.277-1.374c-0.186-0.419-0.445-0.74-0.78-0.967s-0.719-0.339-1.151-0.339c-0.645,0-1.17,0.252-1.579,0.758
			c-0.407,0.505-0.612,1.167-0.612,1.986V58.988z"/>
		<path fill="#6D6E71" d="M185.737,55.607l0.024,1.12c0.247-0.404,0.554-0.711,0.921-0.922c0.366-0.212,0.771-0.318,1.215-0.318
			c0.703,0,1.227,0.196,1.567,0.593c0.343,0.395,0.517,0.988,0.522,1.782v4.294h-0.719v-4.305c-0.008-0.584-0.133-1.018-0.377-1.305
			c-0.242-0.285-0.633-0.43-1.17-0.43c-0.445,0-0.842,0.14-1.188,0.421c-0.345,0.279-0.601,0.657-0.768,1.135v4.483h-0.72v-6.549
			H185.737z"/>
		<path fill="#6D6E71" d="M195.257,62.156c-0.073-0.205-0.12-0.51-0.141-0.912c-0.252,0.331-0.576,0.588-0.973,0.767
			c-0.395,0.178-0.811,0.268-1.247,0.268c-0.63,0-1.14-0.176-1.53-0.525c-0.391-0.351-0.585-0.795-0.585-1.329
			c0-0.641,0.265-1.147,0.796-1.517c0.529-0.369,1.27-0.556,2.22-0.556h1.315v-0.744c0-0.469-0.146-0.84-0.436-1.107
			c-0.29-0.27-0.71-0.403-1.26-0.403c-0.506,0-0.926,0.129-1.256,0.388c-0.33,0.26-0.494,0.57-0.494,0.934l-0.725-0.005
			c0-0.521,0.241-0.972,0.725-1.354c0.482-0.381,1.078-0.571,1.785-0.571c0.73,0,1.307,0.182,1.728,0.548
			c0.421,0.364,0.64,0.874,0.652,1.528v3.099c0,0.634,0.067,1.108,0.2,1.426v0.068H195.257z M192.977,61.637
			c0.487,0,0.921-0.115,1.303-0.35c0.382-0.232,0.659-0.547,0.833-0.939v-1.44h-1.295c-0.725,0.008-1.289,0.139-1.698,0.396
			c-0.408,0.256-0.612,0.61-0.612,1.06c0,0.368,0.137,0.671,0.41,0.913C192.19,61.517,192.543,61.637,192.977,61.637z"/>
		<path fill="#6D6E71" d="M197.837,62.156h-0.726v-9.294h0.726V62.156z"/>
		<path fill="#6D6E71" d="M208.265,58.228c0,0.813-0.139,1.526-0.419,2.141c-0.28,0.612-0.681,1.084-1.2,1.415
			c-0.52,0.33-1.123,0.495-1.806,0.495c-1.03,0-1.862-0.369-2.495-1.105c-0.633-0.737-0.95-1.729-0.95-2.98v-0.905
			c0-0.803,0.143-1.515,0.427-2.135c0.285-0.62,0.689-1.097,1.208-1.43c0.521-0.335,1.12-0.5,1.798-0.5s1.277,0.162,1.796,0.489
			c0.519,0.326,0.919,0.788,1.202,1.388c0.283,0.599,0.43,1.291,0.439,2.078V58.228z M207.521,57.272
			c0-1.059-0.24-1.893-0.721-2.493c-0.479-0.602-1.137-0.902-1.97-0.902c-0.819,0-1.474,0.302-1.96,0.904
			c-0.487,0.604-0.73,1.446-0.73,2.527v0.919c0,1.046,0.242,1.877,0.728,2.487c0.485,0.611,1.144,0.918,1.973,0.918
			c0.843,0,1.501-0.302,1.974-0.905c0.471-0.603,0.707-1.443,0.707-2.52V57.272z"/>
		<path fill="#6D6E71" d="M210.05,62.156h-0.726v-9.294h0.726V62.156z"/>
		<path fill="#6D6E71" d="M213.358,61.117l1.916-5.51h0.779l-2.8,7.666l-0.146,0.339c-0.356,0.793-0.91,1.19-1.66,1.19
			c-0.177,0-0.363-0.028-0.56-0.085l-0.005-0.601l0.375,0.04c0.356,0,0.645-0.089,0.862-0.266c0.218-0.176,0.404-0.477,0.558-0.904
			l0.325-0.885l-2.471-6.495h0.79L213.358,61.117z"/>
		<path fill="#6D6E71" d="M217.099,55.607l0.025,1.064c0.24-0.393,0.541-0.689,0.904-0.888s0.767-0.297,1.21-0.297
			c1.033,0,1.69,0.425,1.971,1.27c0.232-0.406,0.546-0.719,0.937-0.939c0.393-0.221,0.823-0.33,1.293-0.33
			c1.407,0,2.124,0.767,2.15,2.3v4.369h-0.725v-4.313c-0.004-0.587-0.129-1.021-0.379-1.304c-0.247-0.282-0.652-0.422-1.211-0.422
			c-0.523,0.007-0.965,0.175-1.323,0.505s-0.558,0.729-0.598,1.201v4.333h-0.725v-4.369c-0.007-0.56-0.141-0.978-0.4-1.255
			c-0.261-0.276-0.66-0.415-1.2-0.415c-0.457,0-0.848,0.13-1.176,0.391c-0.326,0.26-0.566,0.646-0.725,1.159v4.489h-0.725v-6.549
			H217.099z"/>
		<path fill="#6D6E71" d="M231.954,58.948c0,1.022-0.227,1.835-0.678,2.432c-0.451,0.6-1.058,0.898-1.818,0.898
			c-0.893,0-1.578-0.315-2.055-0.946v3.347h-0.72v-9.071h0.669l0.036,0.925c0.473-0.695,1.157-1.045,2.056-1.045
			c0.779,0,1.393,0.296,1.84,0.89s0.67,1.418,0.67,2.471V58.948z M231.229,58.823c0-0.838-0.172-1.498-0.516-1.98
			c-0.344-0.483-0.822-0.726-1.436-0.726c-0.442,0-0.824,0.107-1.143,0.32s-0.563,0.525-0.732,0.936v3.14
			c0.174,0.374,0.42,0.659,0.742,0.857s0.703,0.299,1.143,0.299c0.611,0,1.087-0.243,1.428-0.731
			C231.058,60.451,231.229,59.745,231.229,58.823z"/>
		<path fill="#6D6E71" d="M232.778,53.712c0-0.137,0.044-0.252,0.135-0.348c0.09-0.097,0.212-0.142,0.365-0.142
			c0.152,0,0.274,0.045,0.365,0.142c0.09,0.096,0.135,0.211,0.135,0.351c0,0.137-0.045,0.254-0.135,0.344
			c-0.091,0.092-0.213,0.139-0.365,0.139c-0.153,0-0.275-0.047-0.365-0.139C232.822,53.969,232.778,53.852,232.778,53.712z
			 M233.634,62.156h-0.726v-6.549h0.726V62.156z"/>
		<path fill="#6D6E71" d="M239.003,62.156c-0.074-0.205-0.119-0.51-0.141-0.912c-0.253,0.331-0.576,0.588-0.973,0.767
			c-0.395,0.178-0.811,0.268-1.248,0.268c-0.629,0-1.139-0.176-1.529-0.525c-0.39-0.351-0.586-0.795-0.586-1.329
			c0-0.641,0.266-1.147,0.796-1.517s1.271-0.556,2.22-0.556h1.315v-0.744c0-0.469-0.145-0.84-0.435-1.107
			c-0.291-0.27-0.71-0.403-1.26-0.403c-0.508,0-0.926,0.129-1.256,0.388c-0.33,0.26-0.494,0.57-0.494,0.934l-0.726-0.005
			c0-0.521,0.241-0.972,0.726-1.354c0.482-0.381,1.078-0.571,1.785-0.571c0.729,0,1.305,0.182,1.727,0.548
			c0.422,0.364,0.641,0.874,0.652,1.528v3.099c0,0.634,0.067,1.108,0.2,1.426v0.068H239.003z M236.723,61.637
			c0.486,0,0.921-0.115,1.304-0.35c0.381-0.232,0.658-0.547,0.831-0.939v-1.44h-1.295c-0.724,0.008-1.289,0.139-1.697,0.396
			c-0.409,0.256-0.612,0.61-0.612,1.06c0,0.368,0.136,0.671,0.41,0.913C235.936,61.517,236.288,61.637,236.723,61.637z"/>
		<path fill="#6D6E71" d="M240.481,58.823c0-1.018,0.227-1.829,0.68-2.431c0.454-0.604,1.07-0.905,1.852-0.905
			c0.883,0,1.557,0.35,2.019,1.045v-3.67h0.722v9.294h-0.676l-0.035-0.869c-0.463,0.661-1.145,0.991-2.045,0.991
			c-0.754,0-1.361-0.304-1.822-0.91c-0.462-0.608-0.693-1.427-0.693-2.461V58.823z M241.212,58.948c0,0.836,0.167,1.495,0.502,1.978
			c0.336,0.481,0.809,0.724,1.418,0.724c0.891,0,1.523-0.396,1.899-1.182v-3.075c-0.376-0.85-1.007-1.275-1.89-1.275
			c-0.607,0-1.08,0.239-1.42,0.717C241.382,57.313,241.212,58.017,241.212,58.948z"/>
		<path fill="#6D6E71" d="M249.396,53.712c0-0.137,0.045-0.252,0.135-0.348c0.09-0.097,0.212-0.142,0.365-0.142
			c0.152,0,0.275,0.045,0.365,0.142c0.09,0.096,0.135,0.211,0.135,0.351c0,0.137-0.045,0.254-0.135,0.344
			c-0.09,0.092-0.213,0.139-0.365,0.139c-0.153,0-0.275-0.047-0.365-0.139C249.44,53.969,249.396,53.852,249.396,53.712z
			 M250.251,62.156h-0.725v-6.549h0.725V62.156z"/>
		<path fill="#6D6E71" d="M252.175,55.607l0.025,1.12c0.246-0.404,0.553-0.711,0.92-0.922c0.366-0.212,0.771-0.318,1.215-0.318
			c0.703,0,1.227,0.196,1.568,0.593c0.342,0.395,0.516,0.988,0.521,1.782v4.294h-0.72v-4.305c-0.007-0.584-0.132-1.018-0.375-1.305
			c-0.243-0.285-0.634-0.43-1.17-0.43c-0.446,0-0.843,0.14-1.188,0.421c-0.346,0.279-0.602,0.657-0.768,1.135v4.483h-0.721v-6.549
			H252.175z"/>
		<path fill="#6D6E71" d="M261.149,62.156h-0.746v-8.809h0.746V62.156z"/>
		<path fill="#6D6E71" d="M263.329,55.607l0.023,1.12c0.247-0.404,0.553-0.711,0.92-0.922c0.367-0.212,0.771-0.318,1.216-0.318
			c0.702,0,1.226,0.196,1.567,0.593c0.342,0.395,0.516,0.988,0.523,1.782v4.294h-0.721v-4.305c-0.007-0.584-0.132-1.018-0.375-1.305
			c-0.244-0.285-0.634-0.43-1.17-0.43c-0.447,0-0.842,0.14-1.188,0.421c-0.345,0.279-0.601,0.657-0.768,1.135v4.483h-0.721v-6.549
			H263.329z"/>
		<path fill="#6D6E71" d="M269.232,62.156v-5.955h-1.085v-0.594h1.085v-0.79c0-0.67,0.171-1.185,0.514-1.545
			c0.341-0.36,0.814-0.541,1.421-0.541c0.277,0,0.533,0.035,0.771,0.105l-0.055,0.604c-0.2-0.049-0.421-0.074-0.661-0.074
			c-0.4,0-0.711,0.124-0.932,0.372c-0.224,0.249-0.333,0.601-0.333,1.057v0.812h1.564v0.594h-1.564v5.955H269.232z"/>
		<path fill="#6D6E71" d="M271.681,58.787c0-0.629,0.122-1.198,0.366-1.702c0.243-0.505,0.588-0.896,1.035-1.178
			c0.446-0.28,0.951-0.42,1.515-0.42c0.873,0,1.581,0.306,2.121,0.917c0.539,0.612,0.81,1.421,0.81,2.428v0.156
			c0,0.632-0.121,1.203-0.366,1.709c-0.242,0.508-0.585,0.897-1.03,1.171c-0.442,0.273-0.95,0.41-1.52,0.41
			c-0.865,0-1.571-0.307-2.114-0.917c-0.544-0.613-0.816-1.423-0.816-2.429V58.787z M272.406,58.988c0,0.782,0.204,1.425,0.61,1.927
			c0.406,0.503,0.938,0.754,1.595,0.754c0.654,0,1.183-0.251,1.588-0.754c0.405-0.502,0.606-1.165,0.606-1.988v-0.14
			c0-0.5-0.091-0.958-0.275-1.374c-0.188-0.419-0.445-0.74-0.781-0.967c-0.334-0.227-0.719-0.339-1.152-0.339
			c-0.643,0-1.169,0.252-1.578,0.758c-0.408,0.505-0.612,1.167-0.612,1.986V58.988z"/>
		<path fill="#6D6E71" d="M281.312,56.228c-0.153-0.03-0.316-0.046-0.489-0.046c-0.453,0-0.835,0.128-1.148,0.382
			c-0.313,0.252-0.534,0.618-0.667,1.099v4.494h-0.721v-6.549h0.706l0.015,1.039c0.383-0.772,0.997-1.159,1.844-1.159
			c0.205,0,0.364,0.026,0.48,0.081L281.312,56.228z"/>
		<path fill="#6D6E71" d="M282.381,55.607l0.024,1.064c0.24-0.393,0.542-0.689,0.906-0.888c0.362-0.198,0.766-0.297,1.209-0.297
			c1.033,0,1.69,0.425,1.971,1.27c0.232-0.406,0.545-0.719,0.938-0.939c0.392-0.221,0.821-0.33,1.293-0.33
			c1.407,0,2.123,0.767,2.15,2.3v4.369h-0.726v-4.313c-0.004-0.587-0.13-1.021-0.378-1.304c-0.249-0.282-0.652-0.422-1.213-0.422
			c-0.523,0.007-0.965,0.175-1.321,0.505c-0.358,0.33-0.56,0.729-0.599,1.201v4.333h-0.725v-4.369
			c-0.007-0.56-0.141-0.978-0.4-1.255c-0.26-0.276-0.66-0.415-1.199-0.415c-0.457,0-0.85,0.13-1.176,0.391
			c-0.326,0.26-0.566,0.646-0.725,1.159v4.489h-0.725v-6.549H282.381z"/>
		<path fill="#6D6E71" d="M296.105,62.156c-0.071-0.205-0.119-0.51-0.14-0.912c-0.253,0.331-0.576,0.588-0.972,0.767
			c-0.396,0.178-0.813,0.268-1.247,0.268c-0.631,0-1.142-0.176-1.53-0.525c-0.392-0.351-0.587-0.795-0.587-1.329
			c0-0.641,0.267-1.147,0.795-1.517c0.53-0.369,1.271-0.556,2.222-0.556h1.314v-0.744c0-0.469-0.145-0.84-0.435-1.107
			c-0.29-0.27-0.71-0.403-1.26-0.403c-0.507,0-0.926,0.129-1.256,0.388c-0.33,0.26-0.494,0.57-0.494,0.934l-0.726-0.005
			c0-0.521,0.241-0.972,0.726-1.354c0.481-0.381,1.078-0.571,1.785-0.571c0.729,0,1.306,0.182,1.728,0.548
			c0.421,0.364,0.639,0.874,0.652,1.528v3.099c0,0.634,0.066,1.108,0.201,1.426v0.068H296.105z M293.827,61.637
			c0.485,0,0.921-0.115,1.302-0.35c0.382-0.232,0.659-0.547,0.832-0.939v-1.44h-1.295c-0.723,0.008-1.289,0.139-1.698,0.396
			c-0.406,0.256-0.612,0.61-0.612,1.06c0,0.368,0.138,0.671,0.411,0.913C293.039,61.517,293.393,61.637,293.827,61.637z"/>
		<path fill="#6D6E71" d="M299,53.933v1.675h1.355v0.594H299v4.367c0,0.361,0.065,0.633,0.198,0.809
			c0.132,0.178,0.352,0.267,0.657,0.267c0.121,0,0.316-0.02,0.586-0.061l0.029,0.596c-0.19,0.066-0.448,0.1-0.774,0.1
			c-0.496,0-0.857-0.145-1.082-0.433c-0.227-0.288-0.339-0.713-0.339-1.273v-4.371h-1.206v-0.594h1.206v-1.675H299z"/>
		<path fill="#6D6E71" d="M301.08,53.712c0-0.137,0.045-0.252,0.134-0.348c0.092-0.097,0.213-0.142,0.366-0.142
			s0.275,0.045,0.364,0.142c0.092,0.096,0.136,0.211,0.136,0.351c0,0.137-0.044,0.254-0.136,0.344
			c-0.089,0.092-0.211,0.139-0.364,0.139s-0.274-0.047-0.366-0.139C301.125,53.969,301.08,53.852,301.08,53.712z M301.936,62.156
			h-0.725v-6.549h0.725V62.156z"/>
		<path fill="#6D6E71" d="M305.589,61.669c0.504,0,0.927-0.145,1.269-0.429c0.342-0.285,0.525-0.652,0.553-1.104h0.7
			c-0.02,0.401-0.145,0.765-0.375,1.094c-0.23,0.328-0.536,0.585-0.918,0.77c-0.383,0.186-0.791,0.278-1.229,0.278
			c-0.858,0-1.541-0.299-2.043-0.896c-0.501-0.596-0.751-1.399-0.751-2.41v-0.215c0-0.646,0.111-1.218,0.337-1.714
			c0.226-0.497,0.548-0.881,0.97-1.15c0.421-0.271,0.916-0.405,1.482-0.405c0.718,0,1.309,0.214,1.776,0.643
			c0.466,0.428,0.716,0.99,0.75,1.688h-0.7c-0.03-0.514-0.215-0.927-0.55-1.24c-0.338-0.313-0.763-0.47-1.276-0.47
			c-0.652,0-1.161,0.235-1.522,0.707c-0.362,0.473-0.542,1.134-0.542,1.983v0.215c0,0.833,0.18,1.483,0.542,1.953
			C304.423,61.435,304.934,61.669,305.589,61.669z"/>
		<path fill="#6D6E71" d="M312.738,60.493c0-0.36-0.144-0.648-0.432-0.866c-0.287-0.217-0.724-0.387-1.304-0.51
			c-0.578-0.123-1.03-0.266-1.352-0.425c-0.321-0.16-0.561-0.354-0.717-0.585c-0.152-0.23-0.231-0.508-0.231-0.835
			c0-0.517,0.216-0.943,0.647-1.279c0.433-0.338,0.984-0.506,1.657-0.506c0.73,0,1.316,0.182,1.759,0.543
			c0.441,0.36,0.663,0.832,0.663,1.411h-0.726c0-0.383-0.16-0.701-0.48-0.953c-0.319-0.254-0.724-0.381-1.216-0.381
			c-0.477,0-0.858,0.106-1.147,0.318c-0.288,0.21-0.432,0.484-0.432,0.822c0,0.326,0.12,0.58,0.36,0.76
			c0.239,0.181,0.676,0.344,1.312,0.494c0.637,0.15,1.113,0.31,1.431,0.479c0.318,0.169,0.554,0.371,0.707,0.608
			c0.154,0.24,0.23,0.528,0.23,0.868c0,0.554-0.223,0.995-0.67,1.326c-0.448,0.33-1.028,0.495-1.746,0.495
			c-0.763,0-1.382-0.185-1.857-0.553c-0.475-0.368-0.712-0.836-0.712-1.402h0.73c0.026,0.424,0.203,0.752,0.532,0.989
			s0.764,0.356,1.307,0.356c0.506,0,0.911-0.111,1.222-0.334C312.583,61.113,312.738,60.832,312.738,60.493z"/>
		<path fill="#6D6E71" d="M144.572,67.039h0.74v6.109c0,0.821-0.238,1.479-0.713,1.969c-0.475,0.49-1.112,0.735-1.912,0.735
			c-0.846,0-1.496-0.221-1.949-0.661c-0.454-0.441-0.681-1.058-0.681-1.851h0.735c0,0.627,0.166,1.101,0.496,1.416
			c0.331,0.315,0.797,0.474,1.399,0.474c0.553,0,1.003-0.183,1.352-0.548c0.349-0.364,0.526-0.863,0.533-1.494V67.039z"/>
		<path fill="#6D6E71" d="M150.815,74.914c-0.427,0.626-1.113,0.938-2.057,0.938c-0.691,0-1.216-0.199-1.575-0.601
			c-0.358-0.399-0.541-0.992-0.547-1.777v-4.206h0.71v4.115c0,1.231,0.499,1.847,1.495,1.847c1.033,0,1.688-0.428,1.964-1.283
			v-4.679h0.716v6.466h-0.691L150.815,74.914z"/>
		<path fill="#6D6E71" d="M153.546,75.734h-0.716V66.56h0.716V75.734z"/>
		<path fill="#6D6E71" d="M156.902,74.708l1.891-5.439h0.77l-2.763,7.567l-0.144,0.335c-0.352,0.782-0.898,1.176-1.638,1.176
			c-0.175,0-0.359-0.028-0.553-0.084l-0.005-0.594l0.371,0.039c0.352,0,0.635-0.085,0.851-0.26s0.399-0.473,0.55-0.895l0.321-0.875
			l-2.438-6.41h0.78L156.902,74.708z"/>
		<path fill="#6D6E71" d="M167.938,75.734h-5.448v-0.549l2.981-3.381c0.494-0.572,0.835-1.042,1.026-1.413
			c0.191-0.369,0.287-0.729,0.287-1.078c0-0.55-0.162-0.983-0.484-1.305s-0.767-0.48-1.333-0.48c-0.585,0-1.058,0.187-1.418,0.559
			c-0.36,0.374-0.541,0.86-0.541,1.458h-0.71c0-0.489,0.11-0.936,0.331-1.337c0.22-0.4,0.536-0.718,0.945-0.947
			c0.41-0.231,0.875-0.345,1.394-0.345c0.796,0,1.419,0.208,1.868,0.629c0.45,0.419,0.674,0.989,0.674,1.71
			c0,0.405-0.126,0.849-0.38,1.33c-0.253,0.482-0.699,1.083-1.337,1.804l-2.423,2.743h4.57V75.734z"/>
		<path fill="#6D6E71" d="M173.757,69.274c0,0.45-0.13,0.854-0.392,1.212c-0.262,0.355-0.608,0.618-1.038,0.785
			c0.5,0.173,0.9,0.449,1.203,0.83c0.303,0.382,0.453,0.824,0.453,1.327c0,0.743-0.251,1.334-0.756,1.77
			c-0.506,0.437-1.174,0.654-2.006,0.654c-0.839,0-1.511-0.218-2.016-0.651c-0.505-0.435-0.758-1.024-0.758-1.772
			c0-0.493,0.146-0.932,0.438-1.319c0.291-0.388,0.689-0.665,1.196-0.838c-0.432-0.167-0.774-0.43-1.029-0.785
			c-0.255-0.357-0.382-0.762-0.382-1.212c0-0.721,0.231-1.294,0.696-1.721c0.464-0.425,1.078-0.638,1.843-0.638
			s1.38,0.216,1.848,0.646C173.523,67.992,173.757,68.563,173.757,69.274z M173.269,73.436c0-0.544-0.193-0.988-0.58-1.337
			c-0.387-0.347-0.88-0.52-1.48-0.52c-0.601,0-1.092,0.171-1.476,0.513c-0.383,0.344-0.575,0.789-0.575,1.344
			c0,0.551,0.186,0.992,0.558,1.321c0.372,0.328,0.874,0.493,1.505,0.493c0.618,0,1.115-0.163,1.488-0.49
			C173.082,74.432,173.269,73.989,173.269,73.436z M173.042,69.269c0-0.495-0.172-0.91-0.516-1.243
			c-0.344-0.332-0.783-0.497-1.315-0.497c-0.542,0-0.983,0.159-1.32,0.48c-0.337,0.321-0.506,0.74-0.506,1.26
			c0,0.511,0.168,0.922,0.506,1.232c0.337,0.312,0.778,0.466,1.325,0.466c0.536,0,0.974-0.156,1.315-0.469
			C172.872,70.185,173.042,69.776,173.042,69.269z"/>
		<path fill="#6D6E71" d="M181.867,71.912v0.681h-4.994v-0.681H181.867z"/>
		<path fill="#6D6E71" d="M189.136,73.296h-3.947l-0.898,2.438h-0.77l3.291-8.695h0.701l3.291,8.695h-0.765L189.136,73.296z
			 M185.415,72.669h3.489l-1.743-4.737L185.415,72.669z"/>
		<path fill="#6D6E71" d="M195.434,74.914c-0.428,0.626-1.114,0.938-2.058,0.938c-0.691,0-1.217-0.199-1.574-0.601
			c-0.358-0.399-0.541-0.992-0.548-1.777v-4.206h0.71v4.115c0,1.231,0.499,1.847,1.496,1.847c1.033,0,1.688-0.428,1.963-1.283
			v-4.679h0.717v6.466h-0.691L195.434,74.914z"/>
		<path fill="#6D6E71" d="M197.078,72.441c0-1.01,0.224-1.81,0.671-2.402c0.447-0.592,1.056-0.888,1.826-0.888
			c0.878,0,1.546,0.35,2.003,1.051l0.04-0.934h0.666v6.332c0,0.833-0.232,1.494-0.698,1.98s-1.097,0.729-1.894,0.729
			c-0.449,0-0.879-0.1-1.287-0.301c-0.408-0.199-0.729-0.468-0.963-0.805l0.4-0.428c0.504,0.622,1.104,0.931,1.801,0.931
			c0.6,0,1.065-0.175,1.398-0.529c0.334-0.354,0.509-0.844,0.521-1.469V74.9c-0.457,0.634-1.125,0.952-2.003,0.952
			c-0.747,0-1.349-0.299-1.802-0.896c-0.454-0.596-0.681-1.403-0.681-2.42V72.441z M197.798,72.564c0,0.827,0.166,1.478,0.496,1.953
			c0.33,0.475,0.797,0.713,1.398,0.713c0.879,0,1.502-0.393,1.871-1.18v-3.006c-0.168-0.413-0.408-0.729-0.723-0.946
			c-0.314-0.218-0.693-0.325-1.138-0.325c-0.6,0-1.065,0.235-1.401,0.708C197.966,70.953,197.798,71.646,197.798,72.564z"/>
		<path fill="#6D6E71" d="M207.669,74.914c-0.428,0.626-1.114,0.938-2.059,0.938c-0.691,0-1.215-0.199-1.573-0.601
			c-0.358-0.399-0.542-0.992-0.548-1.777v-4.206h0.71v4.115c0,1.231,0.499,1.847,1.495,1.847c1.033,0,1.688-0.428,1.965-1.283
			v-4.679h0.715v6.466h-0.69L207.669,74.914z"/>
		<path fill="#6D6E71" d="M213.468,74.09c0-0.355-0.143-0.64-0.426-0.853c-0.285-0.215-0.714-0.382-1.287-0.503
			c-0.571-0.123-1.017-0.262-1.334-0.421c-0.318-0.157-0.553-0.35-0.705-0.576c-0.154-0.228-0.23-0.503-0.23-0.825
			c0-0.51,0.213-0.931,0.64-1.264c0.426-0.332,0.972-0.497,1.636-0.497c0.721,0,1.299,0.179,1.734,0.534
			c0.436,0.357,0.654,0.821,0.654,1.396h-0.716c0-0.379-0.157-0.692-0.474-0.943s-0.716-0.374-1.199-0.374
			c-0.471,0-0.848,0.104-1.133,0.313s-0.428,0.479-0.428,0.813c0,0.321,0.119,0.57,0.355,0.749c0.237,0.178,0.67,0.341,1.296,0.489
			c0.628,0.147,1.097,0.305,1.412,0.471c0.314,0.166,0.547,0.367,0.698,0.602c0.15,0.236,0.227,0.521,0.227,0.856
			c0,0.546-0.221,0.983-0.66,1.309c-0.441,0.326-1.016,0.488-1.723,0.488c-0.754,0-1.365-0.182-1.834-0.545
			s-0.703-0.824-0.703-1.386h0.721c0.026,0.419,0.201,0.744,0.525,0.979c0.324,0.233,0.754,0.35,1.291,0.35
			c0.496,0,0.897-0.107,1.203-0.328C213.315,74.704,213.468,74.426,213.468,74.09z"/>
		<path fill="#6D6E71" d="M216.267,67.617v1.651h1.338v0.587h-1.338v4.31c0,0.357,0.064,0.624,0.195,0.8
			c0.129,0.173,0.346,0.26,0.648,0.26c0.118,0,0.311-0.02,0.578-0.059l0.029,0.588c-0.188,0.065-0.442,0.099-0.765,0.099
			c-0.49,0-0.847-0.143-1.069-0.427c-0.221-0.283-0.332-0.704-0.332-1.257v-4.313h-1.189v-0.587h1.189v-1.651H216.267z"/>
		<path fill="#6D6E71" d="M225.304,72.931h1.353v0.608h-1.353v2.195h-0.721v-2.195h-4.09v-0.412l4.027-6.088h0.783V72.931z
			 M221.371,72.931h3.212v-4.969l-0.314,0.553L221.371,72.931z"/>
		<path fill="#6D6E71" d="M227.022,77.358l-0.424-0.311c0.361-0.483,0.547-0.988,0.557-1.512v-0.927h0.701v0.751
			C227.856,76.188,227.579,76.855,227.022,77.358z"/>
		<path fill="#6D6E71" d="M236.786,75.734h-5.447v-0.549l2.979-3.381c0.494-0.572,0.836-1.042,1.027-1.413
			c0.191-0.369,0.286-0.729,0.286-1.078c0-0.55-0.161-0.983-0.483-1.305s-0.767-0.48-1.332-0.48c-0.587,0-1.059,0.187-1.42,0.559
			c-0.359,0.374-0.54,0.86-0.54,1.458h-0.71c0-0.489,0.109-0.936,0.33-1.337c0.221-0.4,0.535-0.718,0.945-0.947
			c0.409-0.231,0.873-0.345,1.395-0.345c0.795,0,1.418,0.208,1.867,0.629c0.449,0.419,0.674,0.989,0.674,1.71
			c0,0.405-0.127,0.849-0.381,1.33c-0.252,0.482-0.698,1.083-1.337,1.804l-2.423,2.743h4.57V75.734z"/>
		<path fill="#6D6E71" d="M242.728,72.106c0,1.229-0.225,2.159-0.676,2.794c-0.451,0.634-1.113,0.952-1.988,0.952
			c-0.863,0-1.521-0.313-1.98-0.936c-0.457-0.623-0.691-1.53-0.704-2.722v-1.559c0-1.221,0.228-2.146,0.681-2.776
			s1.116-0.944,1.988-0.944c0.862,0,1.52,0.305,1.975,0.912c0.453,0.608,0.689,1.504,0.705,2.686V72.106z M242.008,70.548
			c0-0.994-0.162-1.745-0.487-2.255c-0.324-0.511-0.814-0.765-1.473-0.765c-0.645,0-1.13,0.248-1.455,0.745
			c-0.326,0.495-0.493,1.23-0.503,2.204v1.708c0,0.99,0.168,1.75,0.505,2.275c0.338,0.526,0.826,0.789,1.469,0.789
			c0.635,0,1.117-0.256,1.445-0.769c0.33-0.515,0.496-1.267,0.499-2.261V70.548z"/>
		<path fill="#6D6E71" d="M246.953,75.734h-0.716v-7.837l-2.369,0.879v-0.672l2.967-1.101h0.118V75.734z"/>
		<path fill="#6D6E71" d="M255.131,67.448l-3.716,8.286h-0.75l3.695-8.089h-4.949v-0.606h5.72V67.448z"/>
		<path fill="#6D6E71" d="M146.916,81.126h-3.1v8.392h-0.765v-8.392h-3.095v-0.651h6.959V81.126z"/>
		<path fill="#6D6E71" d="M149.938,89.641c-0.571,0-1.087-0.141-1.55-0.422c-0.462-0.279-0.821-0.673-1.078-1.177
			c-0.256-0.505-0.384-1.069-0.384-1.69v-0.268c0-0.647,0.125-1.229,0.374-1.748c0.25-0.518,0.599-0.925,1.047-1.221
			c0.448-0.297,0.932-0.444,1.453-0.444c0.817,0,1.466,0.279,1.945,0.836c0.479,0.559,0.718,1.32,0.718,2.284v0.416h-4.798v0.145
			c0,0.76,0.218,1.393,0.654,1.9c0.436,0.509,0.986,0.762,1.65,0.762c0.397,0,0.747-0.072,1.052-0.218
			c0.305-0.145,0.582-0.377,0.831-0.695l0.467,0.354C151.772,89.244,150.979,89.641,149.938,89.641z M149.8,83.308
			c-0.558,0-1.029,0.204-1.412,0.614c-0.384,0.408-0.616,0.958-0.698,1.65h4.029v-0.078c-0.021-0.647-0.205-1.173-0.552-1.578
			C150.82,83.51,150.364,83.308,149.8,83.308z"/>
		<path fill="#6D6E71" d="M153.788,83.934c0.244-0.404,0.555-0.716,0.937-0.934c0.382-0.22,0.799-0.329,1.25-0.329
			c0.722,0,1.258,0.203,1.609,0.608c0.351,0.405,0.53,1.015,0.537,1.83v4.408h-0.74v-4.42c-0.007-0.598-0.135-1.044-0.385-1.338
			c-0.25-0.296-0.65-0.441-1.201-0.441c-0.458,0-0.865,0.143-1.219,0.429c-0.354,0.289-0.617,0.678-0.788,1.167v4.604h-0.739v-9.54
			h0.739V83.934z"/>
		<path fill="#6D6E71" d="M162.277,83.431c-0.158-0.03-0.325-0.047-0.503-0.047c-0.466,0-0.858,0.131-1.178,0.391
			s-0.548,0.637-0.685,1.129v4.614h-0.739v-6.724h0.723l0.016,1.067c0.394-0.794,1.024-1.19,1.894-1.19
			c0.208,0,0.373,0.027,0.493,0.083L162.277,83.431z"/>
		<path fill="#6D6E71" d="M166.835,89.518c-0.075-0.213-0.123-0.525-0.144-0.939c-0.26,0.342-0.593,0.604-0.999,0.788
			c-0.405,0.183-0.832,0.274-1.28,0.274c-0.646,0-1.17-0.18-1.571-0.539c-0.4-0.358-0.6-0.815-0.6-1.364
			c0-0.658,0.272-1.178,0.816-1.556c0.544-0.38,1.303-0.57,2.279-0.57h1.35v-0.765c0-0.482-0.148-0.86-0.446-1.137
			s-0.729-0.413-1.293-0.413c-0.52,0-0.949,0.132-1.289,0.398c-0.338,0.266-0.508,0.584-0.508,0.956l-0.744-0.005
			c0-0.532,0.249-0.997,0.744-1.387c0.496-0.394,1.107-0.589,1.833-0.589c0.749,0,1.34,0.188,1.773,0.562
			c0.432,0.374,0.656,0.898,0.67,1.567v3.184c0,0.65,0.068,1.137,0.205,1.462v0.072H166.835z M164.495,88.983
			c0.5,0,0.945-0.119,1.337-0.359c0.392-0.238,0.677-0.562,0.854-0.965v-1.478h-1.33c-0.742,0.006-1.323,0.141-1.742,0.405
			c-0.419,0.263-0.629,0.626-0.629,1.089c0,0.375,0.14,0.688,0.421,0.936C163.687,88.86,164.05,88.983,164.495,88.983z"/>
		<path fill="#6D6E71" d="M169.252,82.794l0.026,1.15c0.253-0.415,0.568-0.729,0.944-0.947c0.376-0.218,0.792-0.326,1.247-0.326
			c0.723,0,1.258,0.203,1.609,0.608c0.35,0.405,0.529,1.015,0.535,1.83v4.408h-0.738v-4.42c-0.007-0.598-0.135-1.044-0.385-1.338
			c-0.25-0.296-0.65-0.441-1.202-0.441c-0.458,0-0.864,0.143-1.218,0.429c-0.354,0.289-0.617,0.678-0.788,1.167v4.604h-0.739v-6.724
			H169.252z"/>
		<path fill="#6D6E71" d="M174.519,91.205l-0.441-0.322c0.376-0.503,0.569-1.027,0.58-1.57v-0.965h0.729v0.779
			C175.386,89.989,175.097,90.683,174.519,91.205z"/>
		<path fill="#6D6E71" d="M179.827,89.518h-0.766v-9.043h0.766V89.518z"/>
		<path fill="#6D6E71" d="M184.354,83.431c-0.157-0.03-0.325-0.047-0.504-0.047c-0.465,0-0.857,0.131-1.177,0.391
			c-0.32,0.26-0.549,0.637-0.686,1.129v4.614h-0.738v-6.724h0.723l0.016,1.067c0.394-0.794,1.024-1.19,1.895-1.19
			c0.208,0,0.372,0.027,0.492,0.083L184.354,83.431z"/>
		<path fill="#6D6E71" d="M188.911,89.518c-0.075-0.213-0.123-0.525-0.145-0.939c-0.26,0.342-0.592,0.604-0.998,0.788
			c-0.404,0.183-0.832,0.274-1.279,0.274c-0.647,0-1.171-0.18-1.57-0.539c-0.402-0.358-0.602-0.815-0.602-1.364
			c0-0.658,0.272-1.178,0.816-1.556c0.544-0.38,1.303-0.57,2.278-0.57h1.35v-0.765c0-0.482-0.148-0.86-0.446-1.137
			c-0.297-0.276-0.729-0.413-1.293-0.413c-0.521,0-0.949,0.132-1.288,0.398c-0.339,0.266-0.509,0.584-0.509,0.956l-0.744-0.005
			c0-0.532,0.248-0.997,0.744-1.387c0.496-0.394,1.107-0.589,1.832-0.589c0.75,0,1.342,0.188,1.773,0.562
			c0.433,0.374,0.656,0.898,0.67,1.567v3.184c0,0.65,0.068,1.137,0.205,1.462v0.072H188.911z M186.571,88.983
			c0.498,0,0.944-0.119,1.336-0.359c0.392-0.238,0.677-0.562,0.854-0.965v-1.478h-1.329c-0.742,0.006-1.323,0.141-1.742,0.405
			c-0.419,0.263-0.629,0.626-0.629,1.089c0,0.375,0.141,0.688,0.421,0.936C185.763,88.86,186.126,88.983,186.571,88.983z"/>
		<path fill="#6D6E71" d="M191.329,82.794l0.025,1.15c0.253-0.415,0.568-0.729,0.944-0.947s0.792-0.326,1.247-0.326
			c0.721,0,1.258,0.203,1.609,0.608c0.35,0.405,0.529,1.015,0.535,1.83v4.408h-0.738v-4.42c-0.007-0.598-0.135-1.044-0.385-1.338
			c-0.25-0.296-0.65-0.441-1.201-0.441c-0.459,0-0.864,0.143-1.219,0.429c-0.354,0.289-0.617,0.678-0.788,1.167v4.604h-0.739v-6.724
			H191.329z"/>
	</g>
</g>
</svg>
