<?xml version="1.0" encoding="utf-8"?>
<!-- Generator: Adobe Illustrator 16.0.0, SVG Export Plug-In . SVG Version: 6.00 Build 0)  -->
<!DOCTYPE svg PUBLIC "-//W3C//DTD SVG 1.1//EN" "http://www.w3.org/Graphics/SVG/1.1/DTD/svg11.dtd">
<svg version="1.1" id="Layer_1" xmlns="http://www.w3.org/2000/svg" xmlns:xlink="http://www.w3.org/1999/xlink" x="0px" y="0px"
	 width="282.143px" height="227.857px" viewBox="0 0 282.143 227.857" enable-background="new 0 0 282.143 227.857"
	 xml:space="preserve">
<g>
	<g id="_x32__1_">
		<g>
			<path fill="#FFFFFF" d="M93.467,87.859c-0.084-0.074-0.534-0.141-0.655-0.127C78.509,89.328,72.2,97.076,73.369,98.615
				c0.199,0.879,13.209,7.734,27.503,4.045c0.271-0.086,0.463-0.57,0.438-0.908C101.1,98.847,96.243,89.376,93.467,87.859z"/>
		</g>
		<g>
			<path fill="none" stroke="#6D6E71" stroke-miterlimit="10" d="M93.467,87.859c-0.084-0.074-0.534-0.141-0.655-0.127
				C78.509,89.328,72.2,97.076,73.369,98.615c0.199,0.879,13.209,7.734,27.503,4.045c0.271-0.086,0.463-0.57,0.438-0.908
				C101.1,98.847,96.243,89.376,93.467,87.859z"/>
		</g>
	</g>
	<g>
		<path fill="#FFFFFF" stroke="#6D6E71" stroke-miterlimit="10" d="M138.329,70.722c-2.717-0.305-6.141,8.814-1.053,13.453
			c2.146,1.926,5.204,2.977,9.678,1.311c4.373-1.629,6.413-5.057,6.64-9.072c-0.11-6.268-7.52-4.568-5.83-8.344
			c1.871-3.037,4.602-0.361,6.559-1.215c4.621-2.02,3.977-12.316-0.648-13.607c-2.148-0.602-7.883,4.281-8.341,5.426
			c-0.457,1.146,2.533,3.371,1.701,7.373C145.929,69.863,141.716,71.087,138.329,70.722z"/>
		<path fill="#FFFFFF" stroke="#6D6E71" stroke-miterlimit="10" d="M136.577,57.343c-5.527-2.572-5.678-14.682,0.255-15.922
			c2.279-0.141,5.758,0.357,7.53,1.943c1.935,1.73,3.733,3.752,4.13,6.643s-2.47,6.295-4.996,7.131
			C142.029,57.779,137.798,57.912,136.577,57.343z"/>
		<path fill="#FFFFFF" stroke="#6D6E71" stroke-miterlimit="10" d="M33.675,60.349c-2.721,0.305-6.15-8.814-1.055-13.453
			c2.15-1.926,5.211-2.979,9.693-1.311c4.379,1.629,6.422,5.059,6.65,9.072c-0.11,6.268-7.53,4.566-5.839,8.342
			c1.873,3.037,5.176-1.002,6.822,2.139c1.646,3.145,1.782,11.973-0.902,12.684c-2.159,0.572-7.895-4.279-8.353-5.426
			s2.536-3.371,1.703-7.371C41.286,61.208,37.067,59.984,33.675,60.349z"/>
		<path fill="#FFFFFF" stroke="#6D6E71" stroke-miterlimit="10" d="M31.919,73.728c-5.535,2.57-5.687,14.68,0.256,15.92
			c2.283,0.137,5.766-0.357,7.542-1.945c1.937-1.73,3.739-3.75,4.136-6.641c0.397-2.891-2.474-6.297-5.003-7.131
			C37.381,73.291,33.144,73.158,31.919,73.728z"/>
		<path fill="#FFFFFF" stroke="#6D6E71" stroke-miterlimit="10" d="M127.664,81.476c7.19-16.133,0.895-29.438,0.844-29.537
			c-0.493-1.158-1.748-0.428-1.748-0.428s-17.147,6.838-11.929,26.508c0.062,0.25,0.336,0.41,0.472,0.338
			c5.422-2.295,8.512,0.027,11.551,3.324C126.944,81.779,127.58,81.664,127.664,81.476z"/>
		<g>
			<g id="_x31__2_">
				<g>
					<path fill="#FFFFFF" d="M34.527,62.513c-1.721,0.1-2.366,1.916-2.366,1.916c-0.185,0.455-0.984,4.205-0.067,5.697
						c0.947,1.541,4.098,1.686,5.353,0.973c1.254-0.711,2.841-2.66,2.838-5.264C40.282,63.23,36.248,62.414,34.527,62.513z"/>
				</g>
				<g>
					<path fill="none" stroke="#6D6E71" stroke-miterlimit="10" d="M34.527,62.513c-1.721,0.1-2.366,1.916-2.366,1.916
						c-0.185,0.455-0.984,4.205-0.067,5.697c0.947,1.541,4.098,1.686,5.353,0.973c1.254-0.711,2.841-2.66,2.838-5.264
						C40.282,63.23,36.248,62.414,34.527,62.513z"/>
				</g>
			</g>
			<path fill="#FFFFFF" stroke="#6D6E71" stroke-miterlimit="10" d="M125.083,84.216c0.038,4.904-13.648,15.889-16.188,15.189
				c-4.836-0.311-7.313-2.813-8.207-5.363c-0.895-2.551-1.131-8.471,4.169-10.223c3.935-1.303,7.613,1.801,9.246,3.484
				c0.243,0.244,0.563,0.063,0.55-0.314c-0.361-1.771-0.651-4.879,1.285-6.363C118.733,78.482,124.121,79.851,125.083,84.216z"/>
			<path fill="#FFFFFF" stroke="#6D6E71" stroke-miterlimit="10" d="M136.818,66.64c0,0,0.645,1.816,2.362,1.916
				c1.718,0.102,5.747-0.715,5.75-3.32c0.003-2.604-1.582-4.555-2.833-5.266c-1.253-0.711-4.399-0.568-5.345,0.973
				C135.835,62.435,136.634,66.185,136.818,66.64z"/>
		</g>
		<g>
			<g id="_x34_">
				<g>
					<path fill="#FFFFFF" d="M62.846,58.826c-0.448-0.775-1.103-0.533-1.589-0.086c-11.153,10.072-5.521,24.115-3.412,28.385
						c0.401,0.945,1.128,0.932,1.601,0.479C62.398,84.802,70.99,74.767,62.846,58.826z"/>
				</g>
				<g>
					<path fill="none" stroke="#6D6E71" stroke-miterlimit="10" d="M62.846,58.826c-0.448-0.775-1.103-0.533-1.589-0.086
						c-11.153,10.072-5.521,24.115-3.412,28.385c0.401,0.945,1.128,0.932,1.601,0.479C62.398,84.802,70.99,74.767,62.846,58.826z"/>
				</g>
			</g>
			<path fill="#FFFFFF" stroke="#6D6E71" stroke-miterlimit="10" d="M74.629,29.146c3.961-1.563,19.119-6.443,28.331,6.039
				c0.694,0.818,0.154,1.389-0.403,1.598c-16.804,6.543-25.938-3.287-28.286-6.357C73.795,29.763,74.313,29.255,74.629,29.146z"/>
		</g>
	</g>
</g>
<g id="_x33_">
	<g>
		<path fill-rule="evenodd" clip-rule="evenodd" fill="#6D6E71" d="M84.498,86.279c-8.231-3.375-13.928-11.574-13.673-20.998
			c0.15-5.59,2.369-10.637,5.901-14.428c0.159-0.141,0.028-0.766-0.441-0.627c-6.954,2.443-10.469,4.82-11.803,5.865
			c-0.197,0.121-0.523,0.666-0.279,1.1c1.804,2.92,8.945,17.049-1.623,29.918c-0.323,0.33-0.495,1.221-0.115,1.666
			c2.041,2.695,4.434,5.115,7.113,7.188c0.369,0.314,0.946,0.031,1.055-0.125c2-2.775,6.587-6.531,13.852-8.977
			C84.658,86.837,84.942,86.468,84.498,86.279z"/>
	</g>
</g>
<path fill-rule="evenodd" clip-rule="evenodd" fill="#6D6E71" d="M151.616,29.306c-2.956,0-11.803,0-14.61,0
	c-0.369,0-0.837,0.395-0.864,0.838c0,1.76,0,6.238,0,8.023c0,0.342,0.395,0.797,0.762,0.742c1.228-0.164,3.71-0.193,5.719,0.527
	c2.787,0.998,5.264,3.494,6.158,4.861c1.313,2.363,2.639,2.076,3.127,2.064c0.637,0.023,0.681-0.74,0.681-0.74s0-12.393,0-15.371
	C152.588,29.802,152.183,29.332,151.616,29.306z"/>
<path fill-rule="evenodd" clip-rule="evenodd" fill="#6D6E71" d="M136.218,88.039c-0.011,2.666,0,10.018,0.003,12.746
	c0.002,0.652,0.497,0.957,0.911,0.98c2.917,0.004,11.998,0,14.694-0.002c0.576,0.031,0.751-0.508,0.761-0.771
	c-0.002-2.74-0.007-11.619-0.002-14.834c0.024-0.801-0.514-0.605-0.625-0.523c-1.734,1.346-6.617,5.779-14.942,1.852
	C136.897,87.408,136.247,87.541,136.218,88.039z"/>
<path fill-rule="evenodd" clip-rule="evenodd" fill="#6D6E71" d="M31.56,43.033c-0.011-2.666,0-10.018,0.003-12.744
	c0.002-0.654,0.498-0.957,0.914-0.982c2.92-0.004,12.015,0.002,14.715,0.004c0.577-0.031,0.752,0.506,0.763,0.771
	c-0.001,2.74-0.007,11.617-0.001,14.832c0.024,0.803-0.515,0.605-0.626,0.523c-1.737-1.346-6.627-5.779-14.965-1.852
	C32.24,43.664,31.589,43.531,31.56,43.033z"/>
<path fill-rule="evenodd" clip-rule="evenodd" fill="#6D6E71" d="M46.948,101.767c-2.956,0-11.806,0-14.614,0
	c-0.369,0-0.837-0.396-0.865-0.838c0-1.764,0-6.248,0-8.035c0-0.342,0.395-0.797,0.762-0.742c1.229,0.162,3.711,0.191,5.722-0.529
	c2.787-1,5.265-3.498,6.159-4.869c1.313-2.365,2.64-2.078,3.127-2.064c0.638-0.025,0.682,0.74,0.682,0.74s0,12.406,0,15.393
	C47.921,101.271,47.516,101.74,46.948,101.767z"/>
<path fill-rule="evenodd" clip-rule="evenodd" fill="#6D6E71" d="M114.05,58.41c-2.514-15.734-7.869-24.49-13.988-29.084
	c-0.209-0.227-0.174-0.785,0.427-0.766c11.181,2.305,20.678,9.629,25.944,19.297c0.17,0.258-0.012,0.744-0.297,0.857
	c-3.236,1.553-8.26,4.467-11.431,10.068C114.397,59.08,114.116,58.845,114.05,58.41z"/>
<path fill-rule="evenodd" clip-rule="evenodd" fill="#6D6E71" d="M109.017,50.892c-3.889-4.199-9.399-6.889-15.571-7.055
	c-2.087-0.055-4.114,0.18-6.041,0.67c-0.014-0.018-0.028-0.037-0.043-0.057c-18.175,3.992-27.443,10.725-31.713,17.861
	c-0.247,0.361-0.723,0.076-0.693-0.172c1.192-12.361,8.268-22.934,18.333-28.969c0.3-0.215,0.693-0.059,0.794,0.068
	c12,12.551,27.333,6.393,30.212,4.947c0.339-0.172,0.713,0.035,0.813,0.205c0.803,1.201,2.889,4.805,4.722,12.063
	C109.898,51.025,109.234,51.132,109.017,50.892z"/>
<g>
	<path fill="#6D6E71" d="M32.755,132.214v-1.662l6.605-7.342c0.985-1.117,1.662-2.025,2.032-2.729
		c0.384-0.725,0.576-1.455,0.576-2.193c0-1-0.309-1.834-0.923-2.5c-0.616-0.66-1.438-0.988-2.466-0.988
		c-1.216,0-2.166,0.346-2.846,1.033c-0.688,0.688-1.039,1.646-1.054,2.879h-2.292c0.021-1.66,0.576-3.047,1.662-4.162
		c1.181-1.08,2.691-1.619,4.53-1.619c1.752,0,3.147,0.467,4.183,1.4c1.014,0.914,1.521,2.135,1.521,3.662
		c0,1.875-1.195,4.109-3.585,6.703l-5.225,5.66h9.69v1.857H32.755z"/>
	<path fill="#6D6E71" d="M55.83,123.828c-1.108,1.318-2.474,1.977-4.096,1.977c-1.042,0-1.984-0.277-2.825-0.836
		c-0.804-0.535-1.434-1.277-1.89-2.227c-0.45-1-0.674-2.082-0.674-3.248c0-1.27,0.243-2.412,0.729-3.434
		c0.485-1.006,1.169-1.781,2.053-2.324c0.891-0.535,1.919-0.805,3.085-0.805c1.869,0,3.342,0.703,4.421,2.107
		c1.086,1.404,1.63,3.32,1.63,5.748v0.707c0,3.707-0.731,6.42-2.195,8.137c-1.463,1.691-3.668,2.559-6.616,2.596H49.04v-1.924h0.446
		c2.057-0.029,3.617-0.559,4.683-1.586c1.085-1.057,1.68-2.676,1.781-4.857L55.83,123.828z M54.417,123.166
		c0.709-0.508,1.224-1.133,1.543-1.879v-1c0-1.623-0.352-2.934-1.055-3.932c-0.709-1.016-1.604-1.521-2.683-1.521
		c-1.094,0-1.97,0.418-2.629,1.26c-0.659,0.824-0.988,1.916-0.988,3.27c0,1.316,0.314,2.412,0.945,3.281
		c0.652,0.855,1.514,1.281,2.585,1.281C52.969,123.925,53.729,123.671,54.417,123.166z"/>
	<path fill="#6D6E71" d="M61.796,116.867h1.552v1.02h-1.552v5.186c0,0.355,0.072,0.613,0.216,0.773
		c0.151,0.174,0.396,0.26,0.734,0.26c0.178,0,0.391-0.025,0.64-0.076v1.064c-0.38,0.098-0.731,0.146-1.052,0.146
		c-0.616,0-1.085-0.188-1.406-0.564c-0.316-0.371-0.475-0.906-0.475-1.604v-5.186h-1.507v-1.02h1.507v-2.008h1.342V116.867z"/>
	<path fill="#6D6E71" d="M65.692,117.835c0.692-0.748,1.524-1.123,2.495-1.123c1.727,0,2.599,0.979,2.615,2.934v5.439H69.46v-5.453
		c-0.009-1.193-0.577-1.791-1.704-1.791c-0.452,0-0.861,0.125-1.229,0.381c-0.346,0.24-0.625,0.572-0.835,0.994v5.869h-1.337
		v-11.697h1.337V117.835z"/>
	<path fill="#6D6E71" d="M33.721,149.23h-0.969v-11.459h0.969V149.23z"/>
	<path fill="#6D6E71" d="M36.555,140.71l0.033,1.457c0.32-0.525,0.719-0.924,1.197-1.199c0.477-0.275,1.004-0.414,1.581-0.414
		c0.915,0,1.594,0.256,2.039,0.771c0.444,0.514,0.671,1.285,0.68,2.318v5.586h-0.937v-5.6c-0.009-0.76-0.171-1.324-0.488-1.697
		c-0.316-0.371-0.824-0.559-1.522-0.559c-0.582,0-1.097,0.182-1.545,0.547c-0.449,0.363-0.782,0.855-0.999,1.477v5.832h-0.937v-8.52
		H36.555z"/>
	<path fill="#6D6E71" d="M45.023,138.533v2.178h1.763v0.773h-1.763v5.68c0,0.471,0.086,0.824,0.256,1.053
		c0.172,0.23,0.457,0.346,0.855,0.346c0.156,0,0.41-0.025,0.761-0.078l0.039,0.775c-0.247,0.086-0.583,0.129-1.008,0.129
		c-0.646,0-1.115-0.188-1.408-0.563c-0.292-0.375-0.439-0.928-0.439-1.656v-5.686h-1.568v-0.773h1.568v-2.178H45.023z"/>
	<path fill="#6D6E71" d="M51.084,149.388c-0.725,0-1.379-0.178-1.964-0.533c-0.585-0.355-1.041-0.854-1.367-1.494
		c-0.325-0.639-0.488-1.354-0.488-2.143v-0.338c0-0.82,0.159-1.559,0.475-2.217c0.316-0.654,0.759-1.172,1.327-1.547
		c0.568-0.375,1.182-0.563,1.841-0.563c1.037,0,1.858,0.354,2.466,1.061c0.607,0.705,0.911,1.672,0.911,2.895v0.527h-6.082v0.182
		c0,0.963,0.276,1.766,0.829,2.41c0.553,0.643,1.25,0.967,2.091,0.967c0.503,0,0.948-0.094,1.333-0.277
		c0.386-0.184,0.737-0.479,1.054-0.881l0.592,0.449C53.408,148.886,52.402,149.388,51.084,149.388z M50.908,141.361
		c-0.707,0-1.303,0.258-1.788,0.777c-0.486,0.518-0.781,1.215-0.885,2.092h5.106v-0.098c-0.026-0.82-0.259-1.486-0.699-2
		S51.624,141.361,50.908,141.361z"/>
	<path fill="#6D6E71" d="M59.097,141.517c-0.199-0.039-0.413-0.059-0.637-0.059c-0.59,0-1.087,0.166-1.494,0.496
		c-0.405,0.328-0.694,0.805-0.868,1.43v5.846h-0.937v-8.52h0.917l0.02,1.352c0.499-1.004,1.299-1.508,2.401-1.508
		c0.264,0,0.472,0.035,0.624,0.105L59.097,141.517z"/>
	<path fill="#6D6E71" d="M60.526,140.71l0.032,1.457c0.321-0.525,0.72-0.924,1.197-1.199c0.477-0.275,1.004-0.414,1.581-0.414
		c0.915,0,1.595,0.256,2.04,0.771c0.445,0.514,0.671,1.285,0.679,2.318v5.586h-0.937v-5.6c-0.009-0.76-0.171-1.324-0.488-1.697
		c-0.316-0.371-0.823-0.559-1.522-0.559c-0.581,0-1.096,0.182-1.544,0.547c-0.449,0.363-0.782,0.855-0.999,1.477v5.832h-0.937v-8.52
		H60.526z"/>
	<path fill="#6D6E71" d="M72.91,149.23c-0.096-0.268-0.156-0.664-0.182-1.188c-0.33,0.432-0.751,0.766-1.266,0.998
		c-0.513,0.23-1.054,0.348-1.623,0.348c-0.819,0-1.482-0.229-1.99-0.684s-0.761-1.033-0.761-1.729c0-0.834,0.345-1.492,1.034-1.973
		c0.69-0.48,1.652-0.723,2.888-0.723h1.711v-0.969c0-0.609-0.189-1.092-0.566-1.439c-0.377-0.352-0.923-0.525-1.639-0.525
		c-0.659,0-1.204,0.168-1.633,0.504c-0.429,0.338-0.644,0.742-0.644,1.215l-0.943-0.006c0-0.678,0.314-1.264,0.943-1.762
		c0.629-0.496,1.402-0.744,2.322-0.744c0.949,0,1.699,0.236,2.247,0.713c0.549,0.475,0.832,1.137,0.849,1.988v4.031
		c0,0.824,0.086,1.441,0.26,1.854v0.09H72.91z M69.943,148.554c0.633,0,1.198-0.15,1.695-0.455c0.496-0.303,0.857-0.711,1.083-1.223
		v-1.873h-1.685c-0.941,0.01-1.678,0.18-2.208,0.514c-0.531,0.334-0.797,0.795-0.797,1.379c0,0.479,0.178,0.873,0.533,1.188
		S69.38,148.554,69.943,148.554z"/>
	<path fill="#6D6E71" d="M76.675,138.533v2.178h1.762v0.773h-1.762v5.68c0,0.471,0.085,0.824,0.257,1.053
		c0.171,0.23,0.456,0.346,0.855,0.346c0.156,0,0.41-0.025,0.761-0.078l0.039,0.775c-0.247,0.086-0.583,0.129-1.008,0.129
		c-0.647,0-1.116-0.188-1.409-0.563s-0.439-0.928-0.439-1.656v-5.686h-1.568v-0.773h1.568v-2.178H76.675z"/>
	<path fill="#6D6E71" d="M79.379,138.246c0-0.178,0.058-0.328,0.175-0.453c0.118-0.125,0.275-0.184,0.475-0.184
		c0.2,0,0.358,0.059,0.476,0.184c0.117,0.125,0.175,0.275,0.175,0.457c0,0.178-0.059,0.33-0.175,0.447
		c-0.118,0.119-0.276,0.18-0.476,0.18c-0.199,0-0.357-0.061-0.475-0.18C79.437,138.58,79.379,138.427,79.379,138.246z
		 M80.491,149.23h-0.943v-8.52h0.943V149.23z"/>
	<path fill="#6D6E71" d="M81.576,144.847c0-0.818,0.158-1.559,0.475-2.215c0.317-0.656,0.766-1.166,1.347-1.531
		c0.581-0.365,1.237-0.547,1.971-0.547c1.135,0,2.056,0.398,2.758,1.193c0.701,0.797,1.054,1.848,1.054,3.158v0.203
		c0,0.822-0.158,1.564-0.475,2.223c-0.317,0.66-0.763,1.168-1.34,1.523c-0.577,0.355-1.236,0.533-1.978,0.533
		c-1.127,0-2.044-0.398-2.751-1.193c-0.707-0.797-1.061-1.85-1.061-3.158V144.847z M82.52,145.109c0,1.018,0.265,1.854,0.793,2.506
		c0.529,0.654,1.221,0.98,2.075,0.98c0.85,0,1.539-0.326,2.065-0.98c0.528-0.652,0.791-1.516,0.791-2.586v-0.182
		c0-0.65-0.121-1.246-0.36-1.787c-0.241-0.545-0.58-0.963-1.016-1.258c-0.436-0.295-0.935-0.441-1.498-0.441
		c-0.837,0-1.521,0.328-2.053,0.986c-0.531,0.656-0.796,1.518-0.796,2.584V145.109z"/>
	<path fill="#6D6E71" d="M91.064,140.71l0.033,1.457c0.321-0.525,0.72-0.924,1.197-1.199c0.477-0.275,1.004-0.414,1.581-0.414
		c0.915,0,1.595,0.256,2.039,0.771c0.445,0.514,0.672,1.285,0.68,2.318v5.586h-0.937v-5.6c-0.009-0.76-0.172-1.324-0.489-1.697
		c-0.316-0.371-0.824-0.559-1.522-0.559c-0.58,0-1.096,0.182-1.545,0.547c-0.449,0.363-0.781,0.855-0.998,1.477v5.832h-0.937v-8.52
		H91.064z"/>
	<path fill="#6D6E71" d="M103.448,149.23c-0.095-0.268-0.156-0.664-0.183-1.188c-0.329,0.432-0.75,0.766-1.265,0.998
		c-0.513,0.23-1.055,0.348-1.623,0.348c-0.819,0-1.482-0.229-1.99-0.684c-0.508-0.455-0.761-1.033-0.761-1.729
		c0-0.834,0.345-1.492,1.034-1.973s1.652-0.723,2.888-0.723h1.71v-0.969c0-0.609-0.188-1.092-0.566-1.439
		c-0.377-0.352-0.923-0.525-1.639-0.525c-0.659,0-1.204,0.168-1.633,0.504c-0.429,0.338-0.644,0.742-0.644,1.215l-0.943-0.006
		c0-0.678,0.314-1.264,0.943-1.762c0.628-0.496,1.403-0.744,2.322-0.744c0.95,0,1.699,0.236,2.248,0.713
		c0.548,0.475,0.832,1.137,0.849,1.988v4.031c0,0.824,0.087,1.441,0.26,1.854v0.09H103.448z M100.482,148.554
		c0.634,0,1.197-0.15,1.694-0.455c0.497-0.303,0.858-0.711,1.083-1.223v-1.873h-1.685c-0.941,0.01-1.676,0.18-2.208,0.514
		c-0.531,0.334-0.797,0.795-0.797,1.379c0,0.479,0.178,0.873,0.534,1.188S99.918,148.554,100.482,148.554z"/>
	<path fill="#6D6E71" d="M106.803,149.23h-0.943v-12.09h0.943V149.23z"/>
	<path fill="#6D6E71" d="M120.369,144.119c0,1.059-0.182,1.986-0.546,2.785c-0.365,0.797-0.885,1.41-1.562,1.84
		c-0.676,0.43-1.46,0.645-2.349,0.645c-1.339,0-2.421-0.48-3.246-1.438c-0.824-0.959-1.236-2.25-1.236-3.877v-1.178
		c0-1.045,0.186-1.971,0.556-2.777s0.895-1.426,1.57-1.859c0.678-0.436,1.457-0.65,2.338-0.65c0.883,0,1.662,0.211,2.336,0.637
		c0.674,0.424,1.195,1.025,1.563,1.805s0.56,1.68,0.573,2.703V144.119z M119.4,142.876c0-1.377-0.313-2.461-0.937-3.242
		c-0.625-0.783-1.479-1.174-2.563-1.174c-1.067,0-1.917,0.393-2.55,1.176c-0.633,0.785-0.95,1.881-0.95,3.287v1.195
		c0,1.361,0.316,2.441,0.947,3.236s1.487,1.193,2.566,1.193c1.097,0,1.953-0.393,2.567-1.178c0.613-0.783,0.92-1.877,0.92-3.277
		V142.876z"/>
	<path fill="#6D6E71" d="M122.69,149.23h-0.944v-12.09h0.944V149.23z"/>
	<path fill="#6D6E71" d="M126.995,147.878l2.491-7.168h1.014l-3.642,9.973l-0.189,0.441c-0.464,1.031-1.184,1.549-2.16,1.549
		c-0.23,0-0.473-0.037-0.729-0.111l-0.006-0.781l0.488,0.053c0.464,0,0.838-0.115,1.122-0.346c0.284-0.229,0.526-0.621,0.726-1.178
		l0.423-1.15l-3.214-8.449h1.028L126.995,147.878z"/>
	<path fill="#6D6E71" d="M131.859,140.71l0.033,1.385c0.313-0.51,0.704-0.896,1.177-1.154c0.473-0.258,0.998-0.387,1.574-0.387
		c1.344,0,2.199,0.553,2.563,1.652c0.302-0.529,0.71-0.936,1.219-1.223c0.51-0.287,1.07-0.43,1.682-0.43
		c1.83,0,2.762,0.998,2.796,2.992v5.684h-0.942v-5.611c-0.005-0.764-0.168-1.328-0.492-1.695c-0.322-0.367-0.849-0.549-1.577-0.549
		c-0.681,0.008-1.254,0.227-1.721,0.656c-0.466,0.43-0.725,0.949-0.777,1.563v5.637h-0.943v-5.684
		c-0.009-0.729-0.183-1.271-0.521-1.633c-0.338-0.359-0.859-0.539-1.561-0.539c-0.594,0-1.104,0.168-1.529,0.508
		c-0.425,0.338-0.738,0.84-0.943,1.508v5.84h-0.944v-8.52H131.859z"/>
	<path fill="#6D6E71" d="M151.183,145.056c0,1.33-0.294,2.387-0.881,3.164c-0.588,0.779-1.376,1.168-2.365,1.168
		c-1.162,0-2.053-0.41-2.673-1.23v4.354h-0.937V140.71h0.871l0.046,1.203c0.615-0.904,1.506-1.359,2.674-1.359
		c1.014,0,1.813,0.385,2.394,1.158c0.581,0.771,0.871,1.844,0.871,3.213V145.056z M150.24,144.894c0-1.09-0.224-1.949-0.671-2.576
		c-0.446-0.629-1.068-0.943-1.866-0.943c-0.576,0-1.073,0.139-1.487,0.416c-0.413,0.277-0.73,0.684-0.952,1.217v4.084
		c0.227,0.486,0.547,0.857,0.966,1.115s0.914,0.389,1.486,0.389c0.794,0,1.413-0.316,1.856-0.951
		C150.018,147.011,150.24,146.093,150.24,144.894z"/>
	<path fill="#6D6E71" d="M152.255,138.246c0-0.178,0.058-0.328,0.175-0.453c0.118-0.125,0.276-0.184,0.476-0.184
		s0.357,0.059,0.475,0.184s0.176,0.275,0.176,0.457c0,0.178-0.059,0.33-0.176,0.447c-0.117,0.119-0.275,0.18-0.475,0.18
		s-0.357-0.061-0.476-0.18C152.313,138.58,152.255,138.427,152.255,138.246z M153.367,149.23h-0.943v-8.52h0.943V149.23z"/>
	<path fill="#6D6E71" d="M160.352,149.23c-0.096-0.268-0.155-0.664-0.183-1.188c-0.329,0.432-0.75,0.766-1.265,0.998
		c-0.514,0.23-1.056,0.348-1.623,0.348c-0.819,0-1.482-0.229-1.989-0.684c-0.508-0.455-0.763-1.033-0.763-1.729
		c0-0.834,0.345-1.492,1.035-1.973s1.652-0.723,2.888-0.723h1.711v-0.969c0-0.609-0.188-1.092-0.566-1.439
		c-0.377-0.352-0.923-0.525-1.639-0.525c-0.659,0-1.203,0.168-1.633,0.504c-0.429,0.338-0.644,0.742-0.644,1.215l-0.943-0.006
		c0-0.678,0.314-1.264,0.943-1.762c0.628-0.496,1.402-0.744,2.322-0.744c0.949,0,1.698,0.236,2.247,0.713
		c0.549,0.475,0.832,1.137,0.849,1.988v4.031c0,0.824,0.087,1.441,0.26,1.854v0.09H160.352z M157.386,148.554
		c0.633,0,1.198-0.15,1.695-0.455c0.496-0.303,0.856-0.711,1.082-1.223v-1.873h-1.685c-0.941,0.01-1.677,0.18-2.208,0.514
		c-0.532,0.334-0.797,0.795-0.797,1.379c0,0.479,0.177,0.873,0.533,1.188C156.362,148.398,156.821,148.554,157.386,148.554z"/>
	<path fill="#6D6E71" d="M162.275,144.894c0-1.324,0.295-2.379,0.885-3.162c0.59-0.785,1.392-1.178,2.407-1.178
		c1.148,0,2.024,0.455,2.626,1.359v-4.773h0.938v12.09h-0.878l-0.046-1.131c-0.604,0.859-1.489,1.289-2.66,1.289
		c-0.981,0-1.771-0.395-2.371-1.184c-0.601-0.791-0.901-1.855-0.901-3.201V144.894z M163.225,145.056
		c0,1.088,0.218,1.945,0.654,2.572c0.436,0.627,1.051,0.941,1.844,0.941c1.158,0,1.982-0.514,2.471-1.537v-4
		c-0.488-1.105-1.309-1.658-2.458-1.658c-0.789,0-1.405,0.311-1.848,0.932C163.446,142.929,163.225,143.845,163.225,145.056z"/>
	<path fill="#6D6E71" d="M173.87,138.246c0-0.178,0.059-0.328,0.176-0.453s0.275-0.184,0.475-0.184s0.358,0.059,0.476,0.184
		s0.175,0.275,0.175,0.457c0,0.178-0.058,0.33-0.175,0.447c-0.117,0.119-0.276,0.18-0.476,0.18s-0.357-0.061-0.475-0.18
		C173.929,138.58,173.87,138.427,173.87,138.246z M174.983,149.23h-0.943v-8.52h0.943V149.23z"/>
	<path fill="#6D6E71" d="M177.485,140.71l0.033,1.457c0.32-0.525,0.719-0.924,1.197-1.199c0.476-0.275,1.003-0.414,1.58-0.414
		c0.915,0,1.595,0.256,2.039,0.771c0.445,0.514,0.672,1.285,0.68,2.318v5.586h-0.937v-5.6c-0.009-0.76-0.172-1.324-0.488-1.697
		c-0.316-0.371-0.824-0.559-1.521-0.559c-0.581,0-1.097,0.182-1.545,0.547c-0.449,0.363-0.782,0.855-0.998,1.477v5.832h-0.938v-8.52
		H177.485z"/>
	<path fill="#6D6E71" d="M189.16,149.23h-0.971v-11.459h0.971V149.23z"/>
	<path fill="#6D6E71" d="M191.994,140.71l0.032,1.457c0.32-0.525,0.719-0.924,1.196-1.199c0.477-0.275,1.004-0.414,1.581-0.414
		c0.914,0,1.594,0.256,2.039,0.771c0.444,0.514,0.671,1.285,0.68,2.318v5.586h-0.937v-5.6c-0.009-0.76-0.172-1.324-0.487-1.697
		c-0.317-0.371-0.825-0.559-1.522-0.559c-0.582,0-1.096,0.182-1.546,0.547c-0.448,0.363-0.78,0.855-0.998,1.477v5.832h-0.938v-8.52
		H191.994z"/>
	<path fill="#6D6E71" d="M199.674,149.23v-7.746h-1.411v-0.773h1.411v-1.027c0-0.871,0.222-1.541,0.668-2.01
		c0.443-0.469,1.06-0.703,1.849-0.703c0.36,0,0.694,0.045,1.003,0.137l-0.071,0.787c-0.26-0.064-0.547-0.098-0.859-0.098
		c-0.521,0-0.925,0.162-1.212,0.484c-0.29,0.324-0.434,0.781-0.434,1.375v1.055h2.036v0.773h-2.036v7.746H199.674z"/>
	<path fill="#6D6E71" d="M202.859,144.847c0-0.818,0.158-1.559,0.476-2.215c0.316-0.656,0.765-1.166,1.347-1.531
		c0.58-0.365,1.237-0.547,1.971-0.547c1.136,0,2.056,0.398,2.758,1.193c0.701,0.797,1.054,1.848,1.054,3.158v0.203
		c0,0.822-0.157,1.564-0.476,2.223c-0.316,0.66-0.762,1.168-1.341,1.523c-0.575,0.355-1.235,0.533-1.977,0.533
		c-1.126,0-2.044-0.398-2.75-1.193c-0.708-0.797-1.062-1.85-1.062-3.158V144.847z M203.803,145.109c0,1.018,0.265,1.854,0.794,2.506
		c0.528,0.654,1.22,0.98,2.074,0.98c0.851,0,1.538-0.326,2.065-0.98c0.527-0.652,0.789-1.516,0.789-2.586v-0.182
		c0-0.65-0.118-1.246-0.359-1.787c-0.242-0.545-0.578-0.963-1.016-1.258c-0.434-0.295-0.936-0.441-1.498-0.441
		c-0.836,0-1.521,0.328-2.053,0.986c-0.532,0.656-0.797,1.518-0.797,2.584V145.109z"/>
	<path fill="#6D6E71" d="M215.386,141.517c-0.199-0.039-0.411-0.059-0.636-0.059c-0.59,0-1.087,0.166-1.494,0.496
		c-0.406,0.328-0.694,0.805-0.868,1.43v5.846h-0.937v-8.52h0.918l0.019,1.352c0.499-1.004,1.298-1.508,2.399-1.508
		c0.267,0,0.474,0.035,0.625,0.105L215.386,141.517z"/>
	<path fill="#6D6E71" d="M216.777,140.71l0.032,1.385c0.312-0.51,0.704-0.896,1.178-1.154c0.472-0.258,0.997-0.387,1.572-0.387
		c1.346,0,2.2,0.553,2.564,1.652c0.302-0.529,0.709-0.936,1.22-1.223c0.509-0.287,1.068-0.43,1.682-0.43
		c1.83,0,2.762,0.998,2.797,2.992v5.684h-0.943v-5.611c-0.005-0.764-0.17-1.328-0.492-1.695c-0.323-0.367-0.848-0.549-1.577-0.549
		c-0.681,0.008-1.255,0.227-1.719,0.656c-0.467,0.43-0.728,0.949-0.778,1.563v5.637h-0.943v-5.684
		c-0.009-0.729-0.184-1.271-0.521-1.633c-0.339-0.359-0.859-0.539-1.561-0.539c-0.595,0-1.105,0.168-1.528,0.508
		c-0.425,0.338-0.738,0.84-0.943,1.508v5.84h-0.942v-8.52H216.777z"/>
	<path fill="#6D6E71" d="M234.63,149.23c-0.093-0.268-0.155-0.664-0.182-1.188c-0.329,0.432-0.75,0.766-1.264,0.998
		c-0.516,0.23-1.057,0.348-1.623,0.348c-0.82,0-1.484-0.229-1.99-0.684c-0.509-0.455-0.763-1.033-0.763-1.729
		c0-0.834,0.347-1.492,1.034-1.973c0.689-0.48,1.653-0.723,2.89-0.723h1.709v-0.969c0-0.609-0.188-1.092-0.564-1.439
		c-0.378-0.352-0.924-0.525-1.64-0.525c-0.659,0-1.203,0.168-1.633,0.504c-0.43,0.338-0.644,0.742-0.644,1.215l-0.943-0.006
		c0-0.678,0.314-1.264,0.943-1.762c0.627-0.496,1.403-0.744,2.323-0.744c0.947,0,1.697,0.236,2.246,0.713
		c0.548,0.475,0.831,1.137,0.85,1.988v4.031c0,0.824,0.086,1.441,0.261,1.854v0.09H234.63z M231.666,148.554
		c0.632,0,1.198-0.15,1.693-0.455c0.497-0.303,0.857-0.711,1.082-1.223v-1.873h-1.684c-0.94,0.01-1.677,0.18-2.209,0.514
		c-0.529,0.334-0.797,0.795-0.797,1.379c0,0.479,0.179,0.873,0.534,1.188S231.102,148.554,231.666,148.554z"/>
	<path fill="#6D6E71" d="M238.395,138.533v2.178h1.764v0.773h-1.764v5.68c0,0.471,0.086,0.824,0.258,1.053
		c0.172,0.23,0.458,0.346,0.855,0.346c0.157,0,0.411-0.025,0.762-0.078l0.039,0.775c-0.248,0.086-0.583,0.129-1.008,0.129
		c-0.646,0-1.115-0.188-1.407-0.563c-0.295-0.375-0.441-0.928-0.441-1.656v-5.686h-1.568v-0.773h1.568v-2.178H238.395z"/>
	<path fill="#6D6E71" d="M241.101,138.246c0-0.178,0.059-0.328,0.175-0.453c0.118-0.125,0.276-0.184,0.476-0.184
		c0.2,0,0.358,0.059,0.474,0.184c0.119,0.125,0.177,0.275,0.177,0.457c0,0.178-0.058,0.33-0.177,0.447
		c-0.115,0.119-0.273,0.18-0.474,0.18c-0.199,0-0.357-0.061-0.476-0.18C241.159,138.58,241.101,138.427,241.101,138.246z
		 M242.214,149.23h-0.943v-8.52h0.943V149.23z"/>
	<path fill="#6D6E71" d="M246.966,148.595c0.655,0,1.205-0.188,1.649-0.557c0.445-0.371,0.685-0.85,0.72-1.436h0.91
		c-0.025,0.521-0.188,0.994-0.487,1.422s-0.697,0.762-1.194,1.002s-1.028,0.361-1.598,0.361c-1.117,0-2.005-0.389-2.657-1.166
		c-0.652-0.775-0.978-1.82-0.978-3.135v-0.279c0-0.84,0.146-1.584,0.438-2.23s0.713-1.145,1.262-1.496
		c0.548-0.352,1.191-0.527,1.928-0.527c0.934,0,1.702,0.279,2.311,0.836c0.606,0.557,0.932,1.289,0.976,2.195h-0.91
		c-0.04-0.668-0.279-1.205-0.716-1.613c-0.438-0.408-0.991-0.611-1.66-0.611c-0.848,0-1.51,0.307-1.979,0.92
		c-0.472,0.615-0.706,1.475-0.706,2.58v0.279c0,1.084,0.234,1.93,0.706,2.541C245.449,148.291,246.113,148.595,246.966,148.595z"/>
	<path fill="#6D6E71" d="M256.266,147.066c0-0.469-0.188-0.844-0.562-1.127c-0.374-0.281-0.941-0.502-1.696-0.662
		c-0.752-0.16-1.34-0.346-1.758-0.553c-0.418-0.209-0.729-0.461-0.932-0.762c-0.199-0.299-0.302-0.66-0.302-1.086
		c0-0.672,0.281-1.227,0.843-1.664c0.563-0.439,1.28-0.658,2.155-0.658c0.95,0,1.712,0.236,2.288,0.707
		c0.574,0.469,0.862,1.082,0.862,1.836h-0.943c0-0.498-0.209-0.912-0.625-1.24c-0.416-0.33-0.942-0.496-1.582-0.496
		c-0.62,0-1.117,0.139-1.493,0.414c-0.374,0.273-0.562,0.631-0.562,1.07c0,0.424,0.157,0.754,0.469,0.988s0.88,0.447,1.707,0.643
		s1.447,0.402,1.86,0.623c0.414,0.219,0.721,0.482,0.92,0.791c0.2,0.313,0.3,0.688,0.3,1.129c0,0.721-0.29,1.295-0.871,1.725
		c-0.583,0.43-1.338,0.645-2.271,0.645c-0.992,0-1.798-0.24-2.416-0.719c-0.617-0.479-0.927-1.088-0.927-1.824h0.95
		c0.035,0.551,0.265,0.979,0.692,1.287s0.994,0.463,1.7,0.463c0.657,0,1.185-0.145,1.589-0.434
		C256.063,147.873,256.266,147.507,256.266,147.066z"/>
	<path fill="#6D6E71" d="M37.519,155.582h0.963v7.947c0,1.068-0.309,1.924-0.928,2.561c-0.618,0.639-1.447,0.957-2.487,0.957
		c-1.101,0-1.945-0.287-2.536-0.859c-0.591-0.574-0.886-1.377-0.886-2.408h0.957c0,0.816,0.215,1.432,0.645,1.842
		c0.43,0.41,1.037,0.617,1.82,0.617c0.719,0,1.305-0.238,1.758-0.713s0.685-1.123,0.693-1.943V155.582z"/>
	<path fill="#6D6E71" d="M45.64,165.826c-0.556,0.814-1.448,1.221-2.676,1.221c-0.899,0-1.582-0.26-2.048-0.781
		c-0.466-0.52-0.704-1.291-0.712-2.313v-5.471h0.924v5.354c0,1.602,0.648,2.402,1.945,2.402c1.344,0,2.195-0.557,2.555-1.67v-6.086
		h0.931v8.41h-0.899L45.64,165.826z"/>
	<path fill="#6D6E71" d="M49.191,166.892H48.26v-11.934h0.931V166.892z"/>
	<path fill="#6D6E71" d="M53.557,165.558l2.459-7.076h1.001l-3.595,9.842l-0.187,0.436c-0.458,1.018-1.168,1.529-2.13,1.529
		c-0.227,0-0.467-0.037-0.72-0.109l-0.006-0.771l0.481,0.051c0.458,0,0.826-0.111,1.107-0.338c0.28-0.229,0.519-0.615,0.716-1.164
		l0.417-1.137l-3.171-8.338h1.015L53.557,165.558z"/>
	<path fill="#6D6E71" d="M67.913,166.892h-7.087v-0.713l3.877-4.398c0.642-0.744,1.087-1.355,1.335-1.838
		c0.248-0.48,0.373-0.949,0.373-1.402c0-0.715-0.21-1.279-0.629-1.697s-0.997-0.625-1.733-0.625c-0.761,0-1.376,0.242-1.845,0.727
		c-0.469,0.486-0.703,1.119-0.703,1.896h-0.924c0-0.637,0.143-1.217,0.43-1.738c0.286-0.521,0.696-0.934,1.229-1.232
		c0.533-0.301,1.137-0.449,1.813-0.449c1.036,0,1.846,0.271,2.43,0.818c0.585,0.545,0.876,1.287,0.876,2.225
		c0,0.527-0.165,1.104-0.495,1.73c-0.33,0.627-0.909,1.408-1.739,2.346l-3.151,3.568h5.944V166.892z"/>
	<path fill="#6D6E71" d="M75.481,158.49c0,0.586-0.169,1.111-0.51,1.576c-0.34,0.463-0.791,0.805-1.351,1.021
		c0.65,0.225,1.172,0.584,1.566,1.08s0.59,1.072,0.59,1.727c0,0.967-0.328,1.734-0.984,2.301c-0.658,0.568-1.527,0.852-2.61,0.852
		c-1.091,0-1.965-0.283-2.622-0.848c-0.658-0.564-0.986-1.332-0.986-2.305c0-0.643,0.189-1.213,0.569-1.717
		c0.378-0.504,0.897-0.865,1.556-1.09c-0.561-0.217-1.007-0.559-1.338-1.021c-0.332-0.465-0.497-0.99-0.497-1.576
		c0-0.938,0.301-1.684,0.905-2.238c0.603-0.553,1.402-0.83,2.397-0.83s1.796,0.281,2.404,0.84
		C75.178,156.822,75.481,157.564,75.481,158.49z M74.846,163.902c0-0.707-0.251-1.285-0.754-1.738
		c-0.503-0.451-1.145-0.676-1.925-0.676c-0.781,0-1.421,0.223-1.919,0.666c-0.499,0.447-0.748,1.027-0.748,1.748
		c0,0.717,0.241,1.291,0.725,1.719s1.136,0.643,1.958,0.643c0.804,0,1.45-0.213,1.936-0.639S74.846,164.623,74.846,163.902z
		 M74.551,158.482c0-0.645-0.224-1.184-0.671-1.617c-0.447-0.432-1.017-0.646-1.71-0.646c-0.706,0-1.278,0.207-1.717,0.625
		c-0.439,0.418-0.658,0.963-0.658,1.639c0,0.664,0.219,1.199,0.658,1.604c0.438,0.404,1.013,0.605,1.724,0.605
		c0.697,0,1.268-0.203,1.711-0.609C74.33,159.673,74.551,159.142,74.551,158.482z"/>
	<path fill="#6D6E71" d="M86.031,161.921v0.885h-6.497v-0.885H86.031z"/>
	<path fill="#6D6E71" d="M95.486,163.72h-5.135l-1.168,3.172h-1.002l4.282-11.311h0.911l4.282,11.311h-0.995L95.486,163.72z
		 M90.646,162.906h4.538l-2.267-6.162L90.646,162.906z"/>
	<path fill="#6D6E71" d="M103.678,165.826c-0.557,0.814-1.45,1.221-2.677,1.221c-0.899,0-1.582-0.26-2.047-0.781
		c-0.466-0.52-0.704-1.291-0.712-2.313v-5.471h0.924v5.354c0,1.602,0.648,2.402,1.945,2.402c1.345,0,2.195-0.557,2.555-1.67v-6.086
		h0.931v8.41h-0.898L103.678,165.826z"/>
	<path fill="#6D6E71" d="M105.817,162.609c0-1.313,0.291-2.354,0.873-3.125c0.582-0.77,1.374-1.154,2.375-1.154
		c1.143,0,2.012,0.455,2.606,1.367l0.052-1.215h0.866v8.236c0,1.082-0.302,1.941-0.908,2.574c-0.606,0.633-1.426,0.949-2.462,0.949
		c-0.585,0-1.145-0.129-1.676-0.391c-0.53-0.26-0.947-0.609-1.251-1.047l0.521-0.557c0.654,0.809,1.435,1.211,2.342,1.211
		c0.779,0,1.386-0.229,1.82-0.689c0.434-0.459,0.661-1.096,0.677-1.908v-1.053c-0.595,0.824-1.463,1.238-2.605,1.238
		c-0.972,0-1.754-0.389-2.344-1.166c-0.59-0.775-0.885-1.826-0.885-3.148V162.609z M106.754,162.769
		c0,1.076,0.215,1.922,0.645,2.541c0.43,0.617,1.037,0.928,1.82,0.928c1.143,0,1.954-0.512,2.433-1.535v-3.91
		c-0.218-0.537-0.532-0.949-0.94-1.23c-0.409-0.283-0.902-0.424-1.48-0.424c-0.78,0-1.386,0.307-1.823,0.922
		C106.972,160.673,106.754,161.576,106.754,162.769z"/>
	<path fill="#6D6E71" d="M119.593,165.826c-0.556,0.814-1.449,1.221-2.677,1.221c-0.899,0-1.582-0.26-2.047-0.781
		c-0.466-0.52-0.704-1.291-0.713-2.313v-5.471h0.924v5.354c0,1.602,0.649,2.402,1.945,2.402c1.345,0,2.196-0.557,2.555-1.67v-6.086
		h0.931v8.41h-0.898L119.593,165.826z"/>
	<path fill="#6D6E71" d="M127.137,164.753c0-0.463-0.185-0.832-0.555-1.109c-0.371-0.279-0.928-0.496-1.673-0.654
		c-0.744-0.16-1.323-0.34-1.736-0.547c-0.414-0.205-0.719-0.455-0.918-0.75c-0.2-0.295-0.299-0.654-0.299-1.072
		c0-0.664,0.277-1.211,0.832-1.645c0.554-0.432,1.264-0.646,2.128-0.646c0.937,0,1.689,0.232,2.256,0.695
		c0.567,0.465,0.85,1.068,0.85,1.814h-0.931c0-0.492-0.205-0.9-0.617-1.227c-0.41-0.326-0.93-0.486-1.559-0.486
		c-0.612,0-1.103,0.135-1.474,0.406c-0.37,0.271-0.556,0.623-0.556,1.057c0,0.418,0.154,0.742,0.462,0.975
		c0.308,0.23,0.871,0.443,1.685,0.637c0.816,0.191,1.427,0.396,1.837,0.611c0.409,0.217,0.711,0.479,0.907,0.783
		c0.197,0.307,0.296,0.678,0.296,1.113c0,0.711-0.287,1.279-0.86,1.703c-0.574,0.424-1.32,0.635-2.241,0.635
		c-0.98,0-1.775-0.236-2.385-0.709c-0.609-0.473-0.915-1.072-0.915-1.803h0.938c0.035,0.545,0.262,0.969,0.683,1.273
		c0.422,0.303,0.982,0.455,1.679,0.455c0.646,0,1.168-0.141,1.566-0.428C126.938,165.552,127.137,165.191,127.137,164.753z"/>
	<path fill="#6D6E71" d="M130.777,156.333v2.148h1.74v0.764h-1.74v5.605c0,0.465,0.084,0.813,0.253,1.041
		c0.169,0.225,0.451,0.338,0.845,0.338c0.153,0,0.404-0.025,0.751-0.076l0.039,0.764c-0.244,0.086-0.576,0.129-0.995,0.129
		c-0.638,0-1.101-0.186-1.391-0.555c-0.288-0.369-0.433-0.916-0.433-1.635v-5.611h-1.547v-0.764h1.547v-2.148H130.777z"/>
	<path fill="#6D6E71" d="M142.533,163.246h1.759v0.791h-1.759v2.855h-0.938v-2.855h-5.321v-0.535l5.238-7.92h1.021V163.246z
		 M137.417,163.246h4.179v-6.463l-0.41,0.719L137.417,163.246z"/>
	<path fill="#6D6E71" d="M144.769,169.003l-0.552-0.404c0.471-0.629,0.712-1.283,0.725-1.965v-1.205h0.911v0.977
		C145.853,167.482,145.491,168.349,144.769,169.003z"/>
	<path fill="#6D6E71" d="M157.468,166.892h-7.086v-0.713l3.876-4.398c0.642-0.744,1.087-1.355,1.336-1.838
		c0.248-0.48,0.372-0.949,0.372-1.402c0-0.715-0.21-1.279-0.629-1.697c-0.42-0.418-0.997-0.625-1.733-0.625
		c-0.763,0-1.377,0.242-1.846,0.727c-0.469,0.486-0.703,1.119-0.703,1.896h-0.924c0-0.637,0.144-1.217,0.43-1.738
		c0.287-0.521,0.696-0.934,1.229-1.232c0.532-0.301,1.137-0.449,1.813-0.449c1.035,0,1.845,0.271,2.43,0.818
		c0.585,0.545,0.876,1.287,0.876,2.225c0,0.527-0.164,1.104-0.494,1.73c-0.329,0.627-0.909,1.408-1.74,2.346l-3.151,3.568h5.944
		V166.892z"/>
	<path fill="#6D6E71" d="M165.197,162.173c0,1.598-0.293,2.809-0.879,3.635c-0.587,0.824-1.449,1.238-2.587,1.238
		c-1.122,0-1.979-0.406-2.575-1.217c-0.595-0.811-0.9-1.99-0.917-3.541v-2.027c0-1.588,0.296-2.791,0.886-3.611
		c0.59-0.818,1.452-1.229,2.587-1.229c1.121,0,1.977,0.396,2.567,1.188s0.896,1.955,0.918,3.492V162.173z M164.261,160.146
		c0-1.293-0.211-2.27-0.634-2.934c-0.421-0.664-1.06-0.994-1.915-0.994c-0.839,0-1.471,0.322-1.894,0.969
		c-0.424,0.645-0.642,1.602-0.654,2.867v2.223c0,1.287,0.219,2.275,0.657,2.959c0.439,0.686,1.075,1.027,1.91,1.027
		c0.825,0,1.453-0.334,1.88-1c0.429-0.67,0.646-1.648,0.649-2.941V160.146z"/>
	<path fill="#6D6E71" d="M170.693,166.892h-0.931v-10.193l-3.082,1.143v-0.873l3.859-1.432h0.153V166.892z"/>
	<path fill="#6D6E71" d="M181.331,156.115l-4.834,10.777h-0.976l4.808-10.521h-6.438v-0.789h7.44V156.115z"/>
	<path fill="#6D6E71" d="M40.566,173.904h-4.032v10.916h-0.995v-10.916h-4.025v-0.848h9.053V173.904z"/>
	<path fill="#6D6E71" d="M44.499,184.98c-0.744,0-1.415-0.184-2.016-0.549c-0.601-0.363-1.068-0.875-1.402-1.531
		c-0.333-0.656-0.5-1.391-0.5-2.199v-0.348c0-0.842,0.162-1.6,0.486-2.273c0.325-0.674,0.779-1.203,1.362-1.588
		c0.583-0.387,1.212-0.578,1.89-0.578c1.063,0,1.907,0.363,2.53,1.088c0.623,0.727,0.935,1.717,0.935,2.971v0.541h-6.242v0.188
		c0,0.988,0.283,1.813,0.851,2.473c0.567,0.662,1.283,0.99,2.146,0.99c0.516,0,0.972-0.094,1.369-0.283
		c0.396-0.188,0.756-0.49,1.081-0.904l0.607,0.461C46.884,184.464,45.852,184.98,44.499,184.98z M44.319,176.742
		c-0.726,0-1.338,0.266-1.836,0.799c-0.499,0.531-0.801,1.246-0.908,2.146h5.241v-0.102c-0.027-0.842-0.267-1.525-0.718-2.053
		C45.646,177.005,45.053,176.742,44.319,176.742z"/>
	<path fill="#6D6E71" d="M49.506,177.556c0.316-0.525,0.722-0.932,1.218-1.215c0.497-0.285,1.039-0.428,1.626-0.428
		c0.939,0,1.636,0.264,2.093,0.791s0.689,1.32,0.698,2.381v5.734h-0.962v-5.75c-0.009-0.777-0.176-1.357-0.501-1.74
		c-0.325-0.385-0.846-0.574-1.562-0.574c-0.597,0-1.125,0.186-1.586,0.559c-0.46,0.375-0.802,0.881-1.025,1.518v5.988h-0.961v-12.41
		h0.961V177.556z"/>
	<path fill="#6D6E71" d="M60.549,176.902c-0.205-0.039-0.423-0.061-0.654-0.061c-0.605,0-1.116,0.17-1.532,0.508
		s-0.713,0.828-0.891,1.469v6.002H56.51v-8.746h0.941l0.021,1.389c0.512-1.033,1.333-1.549,2.463-1.549
		c0.271,0,0.485,0.035,0.641,0.107L60.549,176.902z"/>
	<path fill="#6D6E71" d="M66.477,184.82c-0.098-0.277-0.16-0.684-0.187-1.223c-0.338,0.445-0.771,0.787-1.299,1.025
		c-0.527,0.238-1.083,0.357-1.666,0.357c-0.841,0-1.522-0.234-2.043-0.701c-0.521-0.467-0.781-1.061-0.781-1.775
		c0-0.855,0.354-1.531,1.062-2.023c0.708-0.494,1.695-0.742,2.964-0.742h1.755v-0.994c0-0.627-0.193-1.119-0.581-1.479
		c-0.388-0.359-0.948-0.537-1.683-0.537c-0.676,0-1.235,0.172-1.676,0.518c-0.44,0.346-0.661,0.76-0.661,1.244l-0.968-0.006
		c0-0.693,0.323-1.297,0.968-1.805c0.645-0.512,1.44-0.766,2.383-0.766c0.975,0,1.744,0.244,2.306,0.73s0.854,1.168,0.872,2.039
		v4.141c0,0.846,0.089,1.479,0.267,1.902v0.094H66.477z M63.433,184.125c0.65,0,1.229-0.154,1.739-0.467
		c0.51-0.311,0.88-0.73,1.111-1.256v-1.922h-1.729c-0.965,0.008-1.721,0.184-2.266,0.527c-0.546,0.342-0.818,0.814-0.818,1.416
		c0,0.488,0.183,0.896,0.548,1.217C62.383,183.964,62.854,184.125,63.433,184.125z"/>
	<path fill="#6D6E71" d="M69.622,176.074l0.034,1.496c0.329-0.539,0.738-0.949,1.228-1.232c0.489-0.283,1.03-0.424,1.623-0.424
		c0.939,0,1.636,0.264,2.093,0.791c0.456,0.527,0.688,1.32,0.697,2.381v5.734h-0.961v-5.75c-0.009-0.777-0.176-1.357-0.5-1.74
		c-0.325-0.385-0.846-0.574-1.563-0.574c-0.596,0-1.125,0.186-1.585,0.559c-0.46,0.375-0.802,0.881-1.025,1.518v5.988h-0.961v-8.746
		H69.622z"/>
	<path fill="#6D6E71" d="M76.472,187.015l-0.574-0.42c0.489-0.654,0.741-1.336,0.754-2.043v-1.254h0.948v1.014
		C77.601,185.433,77.224,186.335,76.472,187.015z"/>
	<path fill="#6D6E71" d="M83.376,184.82h-0.995v-11.764h0.995V184.82z"/>
	<path fill="#6D6E71" d="M89.265,176.902c-0.205-0.039-0.423-0.061-0.655-0.061c-0.605,0-1.115,0.17-1.532,0.508
		c-0.416,0.338-0.713,0.828-0.891,1.469v6.002h-0.961v-8.746h0.941l0.02,1.389c0.512-1.033,1.333-1.549,2.464-1.549
		c0.271,0,0.485,0.035,0.641,0.107L89.265,176.902z"/>
	<path fill="#6D6E71" d="M95.193,184.82c-0.098-0.277-0.16-0.684-0.187-1.223c-0.338,0.445-0.771,0.787-1.298,1.025
		s-1.083,0.357-1.666,0.357c-0.841,0-1.522-0.234-2.042-0.701c-0.522-0.467-0.782-1.061-0.782-1.775
		c0-0.855,0.354-1.531,1.062-2.023c0.708-0.494,1.695-0.742,2.963-0.742H95v-0.994c0-0.627-0.193-1.119-0.581-1.479
		s-0.948-0.537-1.683-0.537c-0.676,0-1.234,0.172-1.675,0.518c-0.441,0.346-0.661,0.76-0.661,1.244l-0.969-0.006
		c0-0.693,0.323-1.297,0.969-1.805c0.645-0.512,1.439-0.766,2.383-0.766c0.975,0,1.744,0.244,2.307,0.73s0.853,1.168,0.871,2.039
		v4.141c0,0.846,0.089,1.479,0.267,1.902v0.094H95.193z M92.149,184.125c0.649,0,1.229-0.154,1.738-0.467
		c0.51-0.311,0.88-0.73,1.112-1.256v-1.922H93.27c-0.965,0.008-1.721,0.184-2.266,0.527c-0.545,0.342-0.818,0.814-0.818,1.416
		c0,0.488,0.183,0.896,0.547,1.217C91.099,183.964,91.571,184.125,92.149,184.125z"/>
	<path fill="#6D6E71" d="M98.338,176.074l0.033,1.496c0.33-0.539,0.739-0.949,1.229-1.232c0.489-0.283,1.031-0.424,1.623-0.424
		c0.938,0,1.636,0.264,2.092,0.791c0.457,0.527,0.689,1.32,0.698,2.381v5.734h-0.962v-5.75c-0.008-0.777-0.175-1.357-0.5-1.74
		c-0.325-0.385-0.845-0.574-1.562-0.574c-0.597,0-1.124,0.186-1.585,0.559c-0.46,0.375-0.802,0.881-1.025,1.518v5.988h-0.961v-8.746
		H98.338z"/>
</g>
</svg>
